<svg xmlns="http://www.w3.org/2000/svg" width="700" height="487"><path d="M 656.377 327.372 C 646.908 293.384 677.005 292.031 677.681 248.066 C 678.019 230.141 668.043 211.879 644.541 203.424 C 632.874 199.366 621.377 196.491 611.063 189.896 C 587.56 175.016 587.899 146.607 581.473 122.257 C 567.271 68.992 512.995 26.717 458.043 28.239 C 418.309 29.254 382.464 30.437 346.449 64.088 C 321.763 87.085 305.7 115.493 282.705 139.167 C 258.357 164.363 228.768 176.368 195.459 184.485 C 164.01 192.094 129.686 201.226 105.676 224.054 C 83.019 245.529 86.401 268.188 96.039 294.567 C 106.691 323.652 83.527 343.606 59.348 354.935 C 38.889 364.574 11.836 363.728 2.367 386.556 C -7.947 411.414 22.657 411.752 50.894 411.752 C 79.3 411.752 446.039 409.553 548.671 412.597 C 576.232 413.443 664.324 420.883 676.836 386.556 C 684.952 363.39 662.971 351.215 656.377 327.372 Z" fill="rgb(195,236,254)" opacity="0.35"></path><path d="M 687.826 316.719 C 667.367 364.405 627.802 403.297 580.459 424.434" fill="transparent" stroke-width="1.056399941444397" stroke="rgb(195,236,254)" stroke-miterlimit="10" stroke-dasharray=""></path><path d="M 681.908 329.401 C 689.01 323.483 693.913 314.859 695.435 305.559 C 695.773 303.36 695.942 300.655 694.42 298.964 C 694.082 298.457 693.406 298.118 692.899 298.118 C 691.884 297.949 691.039 298.795 690.362 299.471 C 686.812 303.53 685.628 308.941 684.952 314.352 C 684.106 319.763 682.923 323.652 681.908 329.401 M 672.101 345.635 C 676.329 337.349 677.343 327.541 675.145 318.41 C 674.638 316.212 673.623 313.844 671.594 312.83 C 671.087 312.492 670.411 312.492 669.734 312.661 C 668.72 312.999 668.213 314.014 667.874 315.028 C 666.184 320.101 667.198 325.681 668.72 330.754 C 670.411 335.996 670.918 340.055 672.101 345.635 M 657.729 365.757 C 662.971 357.979 665.169 348.34 663.986 339.209 C 663.647 337.011 662.971 334.474 661.111 333.291 C 660.604 332.952 659.928 332.783 659.251 332.783 C 658.237 332.952 657.56 333.967 657.222 334.813 C 654.855 339.716 655.362 345.297 656.208 350.539 C 657.222 355.781 657.222 359.839 657.729 365.757 M 641.329 383.174 C 646.57 375.396 648.768 365.757 647.585 356.626 C 647.246 354.428 646.57 351.891 644.71 350.708 C 644.203 350.369 643.527 350.2 642.85 350.2 C 641.836 350.369 641.159 351.384 640.821 352.23 C 638.454 357.133 638.961 362.714 639.807 367.956 C 640.821 373.367 640.821 377.425 641.329 383.174 M 616.643 403.466 C 622.56 396.364 625.942 386.894 625.604 377.594 C 625.604 375.396 625.097 372.69 623.406 371.338 C 622.899 370.999 622.222 370.661 621.715 370.661 C 620.7 370.661 620.024 371.676 619.517 372.521 C 616.812 377.087 616.473 382.836 616.812 388.078 C 617.15 393.489 616.812 397.548 616.643 403.466 M 597.367 416.317 C 603.285 409.892 607.005 401.099 607.85 391.798 C 608.019 389.6 608.019 386.894 606.667 385.373 C 606.329 384.865 605.821 384.527 605.314 384.527 C 604.469 384.527 603.792 385.203 603.116 386.049 C 600.242 390.276 599.396 395.857 599.227 401.268 C 598.889 406.51 598.043 410.568 597.367 416.317 M 667.198 352.906 C 676.667 354.428 686.812 352.568 695.266 347.495 C 697.295 346.311 699.493 344.62 700 342.253 C 700.169 341.576 700.169 340.9 699.662 340.393 C 699.155 339.547 697.971 339.378 696.957 339.378 C 691.377 339.378 686.135 342.084 681.232 345.127 C 676.667 348.171 672.609 349.862 667.198 352.906 M 655.7 367.956 C 664.493 371.676 674.807 372.183 684.275 369.477 C 686.643 368.801 689.01 367.617 690.024 365.588 C 690.362 365.081 690.362 364.405 690.193 363.728 C 689.855 362.714 688.841 362.375 687.826 362.037 C 682.415 360.684 676.667 362.037 671.256 363.897 C 665.845 365.588 661.618 366.434 655.7 367.956 M 638.454 385.542 C 646.401 390.953 656.377 393.658 666.184 392.644 C 668.551 392.475 671.256 391.798 672.609 389.938 C 672.947 389.431 673.285 388.755 673.116 388.247 C 672.947 387.233 671.932 386.556 671.087 386.049 C 666.184 383.682 660.097 383.851 654.517 384.527 C 648.768 385.373 644.541 385.203 638.454 385.542 M 614.275 406.002 C 623.237 409.553 633.551 409.892 642.85 406.848 C 645.217 406.172 647.585 404.988 648.599 402.79 C 648.937 402.113 648.937 401.606 648.768 400.93 C 648.43 399.915 647.246 399.577 646.232 399.239 C 640.821 397.886 635.072 399.408 629.662 401.437 C 624.42 403.466 620.193 404.311 614.275 406.002 M 594.662 417.67 C 600.918 424.772 610.048 429.845 619.855 431.367 C 622.222 431.705 624.928 431.874 626.787 430.352 C 627.295 430.014 627.633 429.338 627.802 428.831 C 627.971 427.816 627.126 426.97 626.28 426.294 C 622.053 422.743 616.135 421.39 610.556 420.883 C 604.807 420.038 600.749 418.854 594.662 417.67" fill="rgb(195,236,254)"></path><path d="M 572.005 216.444 C 571.836 216.444 571.498 216.275 571.498 215.937 L 571.329 213.401 C 571.329 213.063 571.498 212.893 571.836 212.893 C 572.174 212.893 572.343 213.063 572.343 213.401 L 572.512 215.937 C 572.512 216.106 572.343 216.444 572.005 216.444 Z" fill="rgb(89,159,210)"></path><path d="M 583.502 332.276 L 576.739 332.783 L 569.13 224.054 L 572.512 223.885 L 575.894 223.716 Z M 572.681 214.923 L 571.329 214.923 L 569.13 224.054 L 575.894 223.716 Z" fill="rgb(195,236,254)"></path><path d="M 203.068 241.978 C 215.072 307.419 260.725 365.926 321.425 393.32" fill="transparent" stroke-width="1.056399941444397" stroke="rgb(195,236,254)" stroke-miterlimit="10" stroke-dasharray=""></path><path d="M 206.111 255.675 C 200.531 248.235 197.657 238.765 198.164 229.465 C 198.333 227.267 198.841 224.73 200.7 223.377 C 201.208 223.039 201.884 222.701 202.391 222.87 C 203.406 223.039 204.082 223.885 204.589 224.73 C 207.126 229.465 207.126 235.045 206.618 240.456 C 205.942 245.698 206.28 249.757 206.111 255.675 M 211.86 273.599 C 209.662 264.637 210.676 254.66 215.072 246.375 C 216.087 244.345 217.609 242.147 219.807 241.809 C 220.483 241.64 221.159 241.64 221.667 241.978 C 222.512 242.485 222.85 243.669 222.85 244.684 C 223.357 250.095 221.159 255.168 218.454 259.902 C 215.749 264.468 214.396 268.357 211.86 273.599 M 221.329 296.258 C 217.947 287.634 217.947 277.658 221.159 268.865 C 222.005 266.666 223.188 264.468 225.217 263.623 C 225.894 263.453 226.401 263.284 227.077 263.623 C 227.923 263.961 228.43 265.144 228.599 266.159 C 229.783 271.401 228.092 276.812 226.063 281.716 C 224.203 286.789 223.188 290.678 221.329 296.258 M 233.502 317.057 C 230.121 308.433 230.121 298.457 233.333 289.664 C 234.179 287.465 235.362 285.267 237.391 284.422 C 238.068 284.252 238.575 284.083 239.251 284.422 C 240.097 284.76 240.604 285.943 240.773 286.958 C 241.957 292.2 240.266 297.611 238.237 302.515 C 236.208 307.588 235.362 311.477 233.502 317.057 M 253.116 342.253 C 248.889 333.967 247.874 324.159 250.072 315.028 C 250.58 312.83 251.594 310.463 253.623 309.448 C 254.13 309.11 254.807 309.11 255.483 309.279 C 256.498 309.617 257.005 310.632 257.343 311.646 C 259.034 316.719 258.019 322.299 256.498 327.372 C 254.807 332.445 254.3 336.503 253.116 342.253 M 269.01 359.163 C 264.783 351.722 262.923 342.084 264.275 332.952 C 264.614 330.754 265.29 328.218 266.981 326.865 C 267.488 326.527 267.995 326.358 268.502 326.358 C 269.348 326.527 269.855 327.372 270.193 328.387 C 272.053 333.122 271.546 338.702 270.7 343.944 C 269.686 349.355 269.686 353.413 269.01 359.163 M 215.072 281.716 C 205.435 281.209 195.966 276.981 188.865 270.217 C 187.174 268.526 185.314 266.497 185.483 264.13 C 185.483 263.453 185.652 262.777 186.159 262.439 C 186.836 261.763 188.019 261.763 189.034 262.101 C 194.444 263.284 199.01 267.174 203.068 271.232 C 206.957 275.121 210.507 277.658 215.072 281.716 M 223.019 298.964 C 213.551 300.655 203.406 298.964 194.783 294.06 C 192.754 292.876 190.556 291.185 190.048 288.987 C 189.879 288.311 189.879 287.634 190.217 287.127 C 190.725 286.282 191.908 286.113 192.923 286.113 C 198.502 285.943 203.913 288.649 208.647 291.524 C 213.551 294.567 217.44 296.089 223.019 298.964 M 235.87 320.101 C 226.908 323.652 216.594 323.99 207.295 320.947 C 204.928 320.27 202.56 319.086 201.546 316.888 C 201.208 316.212 201.208 315.705 201.377 315.028 C 201.715 314.014 202.899 313.675 203.913 313.337 C 209.324 311.984 215.072 313.506 220.483 315.535 C 225.725 317.565 229.952 318.241 235.87 320.101 M 254.976 345.297 C 245.507 346.818 235.362 344.789 226.908 339.716 C 224.879 338.533 222.681 336.842 222.343 334.474 C 222.174 333.798 222.343 333.122 222.681 332.614 C 223.188 331.769 224.372 331.6 225.386 331.6 C 230.966 331.6 236.208 334.305 240.942 337.349 C 245.507 340.562 249.565 342.253 254.976 345.297 M 271.377 361.023 C 263.599 366.603 253.623 369.477 243.816 368.632 C 241.449 368.463 238.744 367.956 237.391 366.095 C 237.053 365.588 236.715 364.912 236.715 364.405 C 236.884 363.39 237.729 362.714 238.744 362.206 C 243.647 359.67 249.734 359.67 255.314 360.346 C 260.894 361.023 265.121 360.853 271.377 361.023" fill="rgb(195,236,254)"></path><path d="M 84.879 333.46 C 151.329 330.416 218.623 361.868 258.865 414.795" fill="transparent" stroke-width="1.056399941444397" stroke="rgb(195,236,254)" stroke-miterlimit="10" stroke-dasharray=""></path><path d="M 98.913 333.291 C 90.459 329.401 80.483 328.725 71.691 331.431 C 69.493 332.107 67.126 333.122 66.28 335.32 C 66.111 335.827 65.942 336.503 66.111 337.18 C 66.449 338.194 67.464 338.533 68.478 338.871 C 73.551 340.393 79.13 339.04 84.203 337.18 C 89.275 335.489 93.333 334.813 98.913 333.291 M 117.85 334.982 C 108.551 334.813 99.251 338.194 92.15 344.113 C 90.459 345.635 88.599 347.495 88.768 349.693 C 88.768 350.369 88.937 351.046 89.444 351.384 C 90.121 352.06 91.304 352.06 92.319 352.06 C 97.56 351.384 102.126 348.002 106.184 344.282 C 109.734 340.731 113.116 338.533 117.85 334.982 M 142.029 339.04 C 132.729 337.687 123.092 339.885 115.314 344.958 C 113.454 346.142 111.425 347.833 111.256 350.2 C 111.256 350.877 111.256 351.553 111.594 352.06 C 112.271 352.906 113.285 353.075 114.3 353.075 C 119.71 353.075 124.614 350.2 129.01 347.157 C 133.406 344.113 136.957 342.084 142.029 339.04 M 165.024 346.311 C 155.725 344.958 146.087 347.157 138.309 352.23 C 136.449 353.413 134.42 355.104 134.251 357.472 C 134.251 358.148 134.251 358.824 134.589 359.332 C 135.266 360.177 136.28 360.346 137.295 360.346 C 142.705 360.346 147.609 357.472 152.005 354.428 C 156.232 351.046 159.952 349.355 165.024 346.311 M 193.937 359.67 C 184.976 357.472 175 358.486 166.715 362.883 C 164.686 363.897 162.488 365.419 162.15 367.617 C 161.981 368.294 161.981 368.97 162.319 369.477 C 162.826 370.323 164.01 370.661 165.024 370.661 C 170.435 371.168 175.507 368.97 180.242 366.265 C 184.807 363.559 188.527 362.206 193.937 359.67 M 213.889 371.337 C 205.604 368.801 195.966 369.308 187.343 372.69 C 185.145 373.536 182.947 374.719 182.101 376.58 C 181.932 377.087 181.763 377.763 181.932 378.27 C 182.271 379.116 183.285 379.454 184.3 379.454 C 189.372 380.131 194.783 378.44 199.686 376.41 C 204.42 374.381 208.478 373.367 213.889 371.337 M 126.304 336.165 C 123.599 327.034 117.343 318.748 109.227 313.168 C 107.198 311.815 104.831 310.632 102.464 311.139 C 101.787 311.308 101.28 311.646 100.942 312.153 C 100.435 312.999 100.773 314.183 101.28 315.028 C 103.647 320.101 108.382 323.652 113.285 326.527 C 118.188 329.401 121.232 332.614 126.304 336.165 M 145.072 340.055 C 144.565 330.416 140.507 320.947 133.913 313.675 C 132.222 311.815 130.193 310.124 127.826 310.124 C 127.15 310.124 126.473 310.293 126.135 310.801 C 125.459 311.477 125.459 312.661 125.628 313.675 C 126.643 319.086 130.531 323.821 134.42 327.71 C 138.478 331.769 141.014 335.32 145.072 340.055 M 168.406 347.833 C 169.928 338.364 167.899 328.218 162.826 319.763 C 161.643 317.734 159.952 315.535 157.585 315.197 C 156.908 315.028 156.232 315.197 155.725 315.535 C 154.879 316.043 154.71 317.226 154.71 318.241 C 154.71 323.821 157.415 329.063 160.628 333.798 C 163.671 338.533 165.362 342.422 168.406 347.833 M 197.319 360.684 C 196.643 351.215 192.415 341.745 185.652 334.643 C 183.961 332.952 181.932 331.261 179.565 331.261 C 178.889 331.261 178.213 331.431 177.874 331.938 C 177.198 332.614 177.198 333.798 177.536 334.813 C 178.72 340.224 182.609 344.789 186.667 348.678 C 190.556 352.737 193.092 356.119 197.319 360.684 M 216.256 373.198 C 219.976 364.405 220.483 354.09 217.609 344.62 C 216.932 342.253 215.749 339.885 213.72 338.871 C 213.213 338.533 212.536 338.533 211.86 338.702 C 210.845 339.04 210.507 340.224 210.169 341.238 C 208.816 346.649 210.169 352.399 212.029 357.81 C 213.889 363.052 214.734 367.279 216.256 373.198" fill="rgb(195,236,254)"></path><path d="M 295.048 361.53 C 285.411 352.568 271.884 348.002 258.696 349.186 C 249.734 350.031 240.097 354.766 238.237 363.559 C 237.222 367.786 237.56 373.198 233.671 374.889 C 229.783 376.41 226.063 372.521 222.174 371.168 C 215.58 368.97 208.14 376.41 210.338 383.005 C 211.353 386.049 213.889 388.585 213.72 391.798 C 213.382 396.026 208.14 398.393 203.913 397.717 C 199.686 397.04 195.966 394.504 191.739 393.489 C 187.512 392.475 182.271 393.489 180.749 397.548 C 179.396 401.099 181.763 406.002 178.889 408.539 C 177.705 409.723 175.845 409.892 174.324 410.061 C 138.309 413.443 98.575 419.868 102.633 426.294 C 103.816 427.985 106.522 427.478 108.551 427.478 C 185.145 426.294 254.807 425.11 331.57 427.478" fill="rgb(195,236,254)"></path><path d="M 304.01 215.599 C 298.599 230.818 282.705 247.897 264.444 247.897 C 243.816 247.897 238.744 231.156 232.657 225.914 C 217.778 212.893 208.647 209.85 189.71 206.637 C 177.367 204.608 164.348 187.36 167.56 170.281 C 173.309 139.167 229.614 124.286 243.816 101.458 C 255.483 82.858 254.807 71.866 275.097 58.508" fill="transparent" stroke-width="1.056" stroke="rgb(161,219,255)" stroke-miterlimit="10" stroke-dasharray="2.641"></path><path d="M 550.531 241.133 L 573.188 330.247 L 568.961 331.261 L 540.725 243.5" fill="rgb(136,210,255)"></path><path d="M 529.396 243.162 C 517.729 246.206 505.386 237.074 501.836 223.039 C 498.285 209.004 504.71 195.138 516.377 192.264 C 528.043 189.22 540.386 198.351 543.937 212.386 C 547.657 226.252 541.063 240.118 529.396 243.162 Z M 518.575 200.042 C 511.304 201.902 507.415 211.372 509.783 221.01 C 512.319 230.818 520.266 237.074 527.536 235.214 C 534.807 233.354 538.696 223.885 536.329 214.246 C 533.961 204.608 525.845 198.182 518.575 200.042 Z" fill="rgb(155,223,255)"></path><path d="M 541.401 218.305 C 541.739 219.826 548.333 245.36 548.333 245.36 C 548.671 246.713 547.826 248.066 546.473 248.404 C 545.121 248.742 543.768 247.897 543.43 246.544 L 542.585 243.5 C 542.585 243.5 539.034 235.722 528.889 238.934 C 528.889 238.934 540.894 237.413 541.232 237.413 C 541.739 237.582 541.063 216.783 541.401 218.305 Z" fill="rgb(192,237,255)"></path><path d="M 547.488 252.462 C 543.937 253.308 540.386 251.278 539.541 247.727 C 539.541 247.727 539.203 245.529 538.357 244.345 C 537.005 242.485 534.469 241.809 529.565 242.993 L 528.382 236.06 C 530.918 235.214 532.778 234.031 534.807 234.2 C 535.821 234.031 536.836 234.031 537.512 233.861 L 537.512 226.928 C 537.512 224.73 540.386 222.194 540.386 220.503 C 540.386 217.628 537.343 214.584 541.063 214.246 L 544.614 213.739 L 552.391 244.345 C 553.068 247.897 551.039 251.617 547.488 252.462 Z" fill="rgb(155,223,255)"></path><path d="M 553.913 240.287 L 553.913 332.276 L 558.309 332.276 L 563.889 240.287" fill="rgb(136,210,255)"></path><path d="M 553.068 210.864 C 553.068 196.322 562.874 184.654 574.71 184.654 C 586.715 184.654 596.522 196.491 596.522 210.864 C 596.522 225.407 586.715 237.074 574.879 237.074 C 562.705 237.074 553.068 225.238 553.068 210.864 Z M 561.014 210.864 C 561.014 220.841 567.101 229.127 574.71 229.127 C 582.319 229.127 588.406 221.01 588.406 210.864 C 588.406 200.887 582.319 192.602 574.71 192.602 C 567.101 192.602 561.014 200.718 561.014 210.864 Z" fill="rgb(155,223,255)"></path><path d="M 556.957 215.937 L 556.957 243.838 C 556.957 245.191 558.14 246.375 559.493 246.375 C 560.845 246.375 562.029 245.191 562.029 243.838 L 562.029 240.625 C 562.029 240.625 563.551 232.17 574.203 232.847 C 574.203 232.847 562.198 234.369 561.86 234.538 C 561.522 234.707 556.957 214.415 556.957 215.937 Z" fill="rgb(192,237,255)"></path><path d="M 559.662 250.602 C 563.213 250.602 566.256 247.727 566.256 244.007 C 566.256 244.007 566.087 241.809 566.594 240.456 C 567.44 238.427 569.807 237.074 574.879 237.074 L 574.372 230.141 C 571.667 229.972 569.638 229.296 567.609 229.972 C 566.594 230.141 565.58 230.31 564.903 230.31 L 563.213 223.547 C 562.705 221.348 559.155 219.657 558.816 218.135 C 558.14 215.261 560.338 211.71 556.618 212.217 L 553.068 212.555 L 553.068 244.176 C 553.068 247.558 555.942 250.602 559.662 250.602 Z" fill="rgb(155,223,255)"></path><path d="M 436.063 110.42 C 436.232 109.744 436.401 108.899 436.57 108.222" fill="transparent" stroke-width="1.056399941444397" stroke="rgb(161,219,255)" stroke-miterlimit="10" stroke-dasharray=""></path><path d="M 438.092 103.995 C 444.517 87.761 462.609 71.528 489.831 77.785 C 509.614 82.35 514.855 100.951 525.507 112.957 C 533.454 121.919 544.614 129.19 548.164 141.703 C 556.618 170.619 545.121 202.071 524.493 211.879 C 513.164 217.29 484.758 214.923 470.217 209.85" fill="transparent" stroke-width="1.056" stroke="rgb(161,219,255)" stroke-miterlimit="10" stroke-dasharray="2.6719,2.6719"></path><path d="M 468.019 209.004 C 467.343 208.666 466.667 208.328 465.99 208.159" fill="transparent" stroke-width="1.056399941444397" stroke="rgb(161,219,255)" stroke-miterlimit="10" stroke-dasharray=""></path><path d="M 592.633 316.043 L 581.135 314.014 L 599.058 214.923 C 599.227 213.908 600.242 213.063 601.425 213.401 L 609.034 214.753 C 610.048 214.923 610.894 215.937 610.556 217.121 Z" fill="rgb(136,210,255)"></path><path d="M 608.865 226.083 L 597.367 224.054 L 599.058 214.923 C 599.227 213.908 600.242 213.063 601.425 213.401 L 609.034 214.753 C 610.048 214.923 610.894 215.937 610.556 217.121 Z" fill="rgb(254,125,144)"></path><path d="M 596.589 227.46 L 597.22 223.965 L 608.867 226.069 L 608.236 229.563 Z" fill="rgb(89,159,210)" opacity="0.5"></path><path d="M 623.09 229.263 L 641.966 236.704 L 601.725 338.803 L 582.849 331.361 Z" fill="rgb(195,236,254)"></path><path d="M 634.396 237.582 L 640.652 239.949 M 632.198 242.824 L 638.454 245.36 M 630.169 248.066 L 636.425 250.602 M 625.097 252.293 L 634.396 255.844 M 625.942 258.719 L 632.198 261.255 M 623.913 264.13 L 630.169 266.497 M 621.884 269.372 L 627.971 271.739 M 616.643 273.43 L 625.942 277.15 M 617.657 280.025 L 623.913 282.392 M 615.628 285.267 L 621.715 287.803 M 613.43 290.509 L 619.686 293.045 M 608.357 294.736 L 617.657 298.287 M 609.203 301.162 L 615.459 303.699 M 607.174 306.573 L 613.43 308.941 M 605.145 311.815 L 611.401 314.183 M 599.903 315.874 L 609.203 319.594 M 600.918 322.468 L 607.174 324.836 M 598.889 327.71 L 604.976 330.247 M 596.691 332.952 L 602.947 335.489" fill="transparent" stroke-width="1.056" stroke="rgb(204,243,255)" stroke-miterlimit="10" stroke-dasharray=""></path><path d="M 615.459 432.043 L 521.28 432.043 L 505.386 289.664 C 505.217 287.803 506.57 286.282 508.43 286.282 L 628.14 286.282 C 630 286.282 631.353 287.803 631.184 289.664 Z" fill="rgb(155,223,255)"></path><path d="M 497.44 438.3 C 554.082 439.145 610.894 439.822 667.536 440.667 C 669.396 440.667 675.483 438.807 665.169 432.212 C 656.377 426.632 628.816 431.705 628.816 431.705 C 628.816 431.705 635.242 429.169 635.242 425.787 C 635.242 422.405 632.705 419.53 629.662 418.177 C 626.618 416.825 623.237 416.656 619.855 416.825 C 613.092 417.163 606.329 418.685 600.072 421.221 C 602.778 419.53 603.623 415.472 601.763 412.935 C 599.903 410.399 595.845 409.892 593.478 411.921 C 597.705 406.172 604.3 380.638 584.179 369.477 C 558.816 355.442 539.71 366.941 535.483 375.396 C 533.454 367.11 523.816 360.684 517.56 359.162 C 503.188 355.611 493.889 356.626 480.531 362.883 C 475.797 365.081 469.372 372.69 466.329 376.749 C 461.425 383.343 460.58 391.967 460.411 400.084 C 460.242 406.172 460.242 412.428 460.411 418.516" fill="rgb(204,243,255)"></path><path d="M 275.435 447.262 C 275.435 444.367 332.513 442.02 402.923 442.02 C 473.332 442.02 530.411 444.367 530.411 447.262 C 530.411 450.157 473.332 452.504 402.923 452.504 C 332.513 452.504 275.435 450.157 275.435 447.262 Z" fill="rgb(233,232,238)"></path><path d="M 405.459 76.094 C 398.357 76.094 392.609 81.843 392.609 88.945 L 392.609 105.348 L 418.14 105.348 L 418.14 88.945 C 418.14 81.674 412.391 76.094 405.459 76.094 Z M 405.459 96.216 C 401.57 96.216 398.357 93.003 398.357 89.114 C 398.357 85.225 401.57 82.012 405.459 82.012 C 409.348 82.012 412.56 85.225 412.56 89.114 C 412.56 93.003 409.348 96.216 405.459 96.216 Z" fill="rgb(232,80,91)"></path><path d="M 412.56 88.945 C 412.56 85.056 409.348 81.843 405.459 81.843 C 405.121 81.843 404.783 81.843 404.444 82.012 C 405.459 81.674 405.628 81.336 407.319 81.336 C 411.208 81.336 414.42 84.549 414.42 88.438 C 414.42 91.989 412.56 94.018 409.855 94.694 C 411.377 93.342 412.56 91.143 412.56 88.945 Z M 396.498 103.657 L 396.498 87.254 C 396.498 82.858 398.357 78.799 401.908 76.601 C 396.498 78.123 392.609 83.027 392.609 88.945 L 392.609 105.348 L 418.14 105.348 L 418.14 103.657 Z" fill="rgb(176,61,68)" opacity="0.45"></path><path d="M 507.077 447.262 L 298.768 447.262 C 289.638 447.262 282.367 439.822 282.367 430.86 L 282.367 122.595 C 282.367 113.464 289.807 106.193 298.768 106.193 L 507.077 106.193 C 516.208 106.193 523.478 113.633 523.478 122.595 L 523.478 430.86 C 523.647 439.822 516.208 447.262 507.077 447.262 Z" fill="rgb(62,137,204)"></path><path d="M 296.232 119.552 L 509.614 119.552 L 509.614 433.903 L 296.232 433.903 Z" fill="rgb(195,236,254)"></path><path d="M 304.517 129.021 L 501.498 129.021 L 501.498 424.265 L 304.517 424.265 Z" fill="rgb(255,255,255)"></path><path d="M 480.531 124.625 L 325.314 124.625 L 325.314 114.648 C 325.314 108.053 330.556 102.811 337.15 102.811 L 468.696 102.811 C 475.29 102.811 480.531 108.053 480.531 114.648 Z" fill="rgb(232,80,91)"></path><path d="M 331.401 121.412 L 331.401 112.111 C 331.401 108.56 332.923 105.348 335.29 103.149 C 329.71 104.333 325.483 109.406 325.483 115.324 L 325.483 124.625 L 480.7 124.625 L 480.7 121.412 Z" fill="rgb(176,61,68)" opacity="0.45"></path><path d="M 318.551 169.605 C 318.551 155.596 329.906 144.24 343.913 144.24 C 357.92 144.24 369.275 155.596 369.275 169.605 C 369.275 183.613 357.92 194.969 343.913 194.969 C 329.906 194.969 318.551 183.613 318.551 169.605 Z" fill="rgb(9,100,175)" opacity="0.25"></path><path d="M 314.493 169.605 C 314.493 153.355 327.665 140.182 343.913 140.182 C 360.161 140.182 373.333 153.355 373.333 169.605 C 373.333 185.854 360.161 199.027 343.913 199.027 C 327.665 199.027 314.493 185.854 314.493 169.605 Z" fill="transparent" stroke-width="1.056" stroke="rgb(254,125,144)" stroke-miterlimit="10" stroke-dasharray=""></path><path d="M 348.986 170.112 C 351.522 168.421 353.043 165.715 353.043 162.502 C 353.043 157.43 348.986 153.371 343.913 153.371 C 338.841 153.371 334.783 157.43 334.783 162.502 C 334.783 165.715 336.473 168.421 338.841 170.112 C 333.092 171.465 328.865 176.538 328.865 182.625 L 328.865 190.234 C 333.092 193.278 338.164 195.138 343.744 195.138 C 349.324 195.138 354.396 193.278 358.623 190.234 L 358.623 182.625 C 358.792 176.538 354.565 171.465 348.986 170.112 Z" fill="rgb(255,255,255)"></path><path d="M 385 146.269 L 386.184 148.806 L 389.058 149.144 L 387.029 151.173 L 387.536 153.878 L 385 152.526 L 382.633 153.878 L 382.971 151.173 L 381.111 149.144 L 383.816 148.806 Z M 397.005 146.269 L 398.188 148.806 L 400.894 149.144 L 399.034 151.173 L 399.372 153.878 L 397.005 152.526 L 394.469 153.878 L 394.976 151.173 L 392.947 149.144 L 395.821 148.806 Z M 409.01 146.269 L 410.193 148.806 L 412.899 149.144 L 410.87 151.173 L 411.377 153.878 L 409.01 152.526 L 406.473 153.878 L 406.981 151.173 L 404.952 149.144 L 407.657 148.806 Z M 421.014 146.269 L 422.198 148.806 L 424.903 149.144 L 422.874 151.173 L 423.382 153.878 L 421.014 152.526 L 418.478 153.878 L 418.986 151.173 L 416.957 149.144 L 419.662 148.806 Z M 432.85 146.269 L 434.203 148.806 L 436.908 149.144 L 434.879 151.173 L 435.386 153.878 L 432.85 152.526 L 430.483 153.878 L 430.99 151.173 L 428.961 149.144 L 431.667 148.806 Z" fill="rgb(9,100,175)"></path><g transform="translate(382.295 160.473)"><path d="M 0 0 L 25.531 0 M 82.681 10.146 L 102.126 10.146 M 0 10.146 L 74.396 10.146 M 0 20.461 L 102.126 20.461 M 69.662 30.607 L 102.126 30.607 M 0 30.607 L 61.546 30.607 M 33.986 0 L 102.126 0" fill="transparent" stroke-width="2.112799882888794" stroke="rgb(9,100,175)" stroke-linecap="round" stroke-linejoin="round" stroke-dasharray=""></path></g><path d="M 318.551 241.133 C 318.551 227.124 329.906 215.768 343.913 215.768 C 357.92 215.768 369.275 227.124 369.275 241.133 C 369.275 255.141 357.92 266.497 343.913 266.497 C 329.906 266.497 318.551 255.141 318.551 241.133 Z" fill="rgb(9,100,175)" opacity="0.25"></path><path d="M 348.986 241.64 C 351.522 239.949 353.043 237.243 353.043 234.031 C 353.043 228.958 348.986 224.899 343.913 224.899 C 338.841 224.899 334.783 228.958 334.783 234.031 C 334.783 237.243 336.473 239.949 338.841 241.64 C 333.092 242.993 328.865 248.066 328.865 254.153 L 328.865 261.763 C 333.092 264.806 338.164 266.666 343.744 266.666 C 349.324 266.666 354.396 264.806 358.623 261.763 L 358.623 254.153 C 358.792 247.897 354.565 242.824 348.986 241.64 Z" fill="rgb(255,255,255)"></path><path d="M 385 217.797 L 386.184 220.334 L 389.058 220.672 L 387.029 222.701 L 387.536 225.407 L 385 224.054 L 382.633 225.407 L 382.971 222.701 L 381.111 220.672 L 383.816 220.334 Z M 397.005 217.797 L 398.188 220.334 L 400.894 220.672 L 399.034 222.701 L 399.372 225.407 L 397.005 224.054 L 394.469 225.407 L 394.976 222.701 L 392.947 220.672 L 395.821 220.334 Z M 409.01 217.797 L 410.193 220.334 L 412.899 220.672 L 410.87 222.701 L 411.377 225.407 L 409.01 224.054 L 406.473 225.407 L 406.981 222.701 L 404.952 220.672 L 407.657 220.334 Z" fill="rgb(9,100,175)"></path><path d="M 421.014 217.797 L 422.198 220.334 L 424.903 220.672 L 422.874 222.701 L 423.382 225.407 L 421.014 224.054 L 418.478 225.407 L 418.986 222.701 L 416.957 220.672 L 419.662 220.334 Z M 432.85 217.797 L 434.203 220.334 L 436.908 220.672 L 434.879 222.701 L 435.386 225.407 L 432.85 224.054 L 430.483 225.407 L 430.99 222.701 L 428.961 220.672 L 431.667 220.334 Z" fill="rgb(9,100,175)" opacity="0.25"></path><g transform="translate(382.295 232.001)"><path d="M 0 0 L 45.314 0 M 26.884 10.146 L 102.126 10.146 M 0 10.146 L 18.43 10.146 M 0 20.292 L 102.126 20.292 M 81.159 30.607 L 102.126 30.607 M 0 30.607 L 73.213 30.607 M 53.768 0 L 102.126 0" fill="transparent" stroke-width="2.112799882888794" stroke="rgb(9,100,175)" stroke-linecap="round" stroke-linejoin="round" stroke-dasharray=""></path></g><path d="M 318.551 312.661 C 318.551 298.652 329.906 287.296 343.913 287.296 C 357.92 287.296 369.275 298.652 369.275 312.661 C 369.275 326.669 357.92 338.025 343.913 338.025 C 329.906 338.025 318.551 326.669 318.551 312.661 Z" fill="rgb(9,100,175)" opacity="0.25"></path><path d="M 348.986 312.999 C 351.522 311.308 353.043 308.602 353.043 305.39 C 353.043 300.317 348.986 296.258 343.913 296.258 C 338.841 296.258 334.783 300.317 334.783 305.39 C 334.783 308.602 336.473 311.308 338.841 312.999 C 333.092 314.352 328.865 319.425 328.865 325.512 L 328.865 333.122 C 333.092 336.165 338.164 338.025 343.744 338.025 C 349.324 338.025 354.396 336.165 358.623 333.122 L 358.623 325.512 C 358.792 319.425 354.565 314.352 348.986 312.999 Z" fill="rgb(255,255,255)"></path><path d="M 385 289.325 L 386.184 291.862 L 389.058 292.2 L 387.029 294.229 L 387.536 296.935 L 385 295.582 L 382.633 296.935 L 382.971 294.229 L 381.111 292.2 L 383.816 291.862 Z M 397.005 289.325 L 398.188 291.862 L 400.894 292.2 L 399.034 294.229 L 399.372 296.935 L 397.005 295.582 L 394.469 296.935 L 394.976 294.229 L 392.947 292.2 L 395.821 291.862 Z M 409.01 289.325 L 410.193 291.862 L 412.899 292.2 L 410.87 294.229 L 411.377 296.935 L 409.01 295.582 L 406.473 296.935 L 406.981 294.229 L 404.952 292.2 L 407.657 291.862 Z M 421.014 289.325 L 422.198 291.862 L 424.903 292.2 L 422.874 294.229 L 423.382 296.935 L 421.014 295.582 L 418.478 296.935 L 418.986 294.229 L 416.957 292.2 L 419.662 291.862 Z" fill="rgb(9,100,175)"></path><path d="M 432.85 289.325 L 434.203 291.862 L 436.908 292.2 L 434.879 294.229 L 435.386 296.935 L 432.85 295.582 L 430.483 296.935 L 430.99 294.229 L 428.961 292.2 L 431.667 291.862 Z" fill="rgb(9,100,175)" opacity="0.25"></path><g transform="translate(382.295 303.53)"><path d="M 0 0 L 25.531 0 M 46.836 10.146 L 102.126 10.146 M 0 10.146 L 38.382 10.146 M 0 20.292 L 102.126 20.292 M 23.333 30.607 L 102.126 30.607 M 0 30.607 L 15.217 30.607 M 33.986 0 L 102.126 0" fill="transparent" stroke-width="2.112799882888794" stroke="rgb(9,100,175)" stroke-linecap="round" stroke-linejoin="round" stroke-dasharray=""></path></g><path d="M 318.551 384.189 C 318.551 370.18 329.906 358.824 343.913 358.824 C 357.92 358.824 369.275 370.18 369.275 384.189 C 369.275 398.197 357.92 409.553 343.913 409.553 C 329.906 409.553 318.551 398.197 318.551 384.189 Z" fill="rgb(9,100,175)" opacity="0.25"></path><path d="M 348.986 384.527 C 351.522 382.836 353.043 380.131 353.043 376.918 C 353.043 371.845 348.986 367.786 343.913 367.786 C 338.841 367.786 334.783 371.845 334.783 376.918 C 334.783 380.131 336.473 382.836 338.841 384.527 C 333.092 385.88 328.865 390.953 328.865 397.04 L 328.865 404.65 C 333.092 407.693 338.164 409.553 343.744 409.553 C 349.324 409.553 354.396 407.693 358.623 404.65 L 358.623 397.04 C 358.792 390.953 354.565 385.88 348.986 384.527 Z" fill="rgb(255,255,255)"></path><path d="M 385 360.853 L 386.184 363.39 L 389.058 363.728 L 387.029 365.757 L 387.536 368.463 L 385 367.11 L 382.633 368.463 L 382.971 365.757 L 381.111 363.728 L 383.816 363.39 Z M 397.005 360.853 L 398.188 363.39 L 400.894 363.728 L 399.034 365.757 L 399.372 368.463 L 397.005 367.11 L 394.469 368.463 L 394.976 365.757 L 392.947 363.728 L 395.821 363.39 Z M 409.01 360.853 L 410.193 363.39 L 412.899 363.728 L 410.87 365.757 L 411.377 368.463 L 409.01 367.11 L 406.473 368.463 L 406.981 365.757 L 404.952 363.728 L 407.657 363.39 Z M 421.014 360.853 L 422.198 363.39 L 424.903 363.728 L 422.874 365.757 L 423.382 368.463 L 421.014 367.11 L 418.478 368.463 L 418.986 365.757 L 416.957 363.728 L 419.662 363.39 Z M 432.85 360.853 L 434.203 363.39 L 436.908 363.728 L 434.879 365.757 L 435.386 368.463 L 432.85 367.11 L 430.483 368.463 L 430.99 365.757 L 428.961 363.728 L 431.667 363.39 Z" fill="rgb(9,100,175)"></path><g transform="translate(382.295 375.058)"><path d="M 102.126 30.607 L 76.594 30.607 M 19.444 20.292 L 0 20.292 M 102.126 20.292 L 27.899 20.292 M 102.126 10.146 L 0 10.146 M 32.464 0 L 0 0 M 102.126 0 L 40.58 0 M 68.309 30.607 L 0 30.607" fill="transparent" stroke-width="2.112799882888794" stroke="rgb(9,100,175)" stroke-linecap="round" stroke-linejoin="round" stroke-dasharray=""></path></g><path d="M 421.86 307.081 C 428.792 311.815 436.739 314.352 445.024 314.352 C 447.391 314.352 449.758 314.183 452.126 313.675 C 458.043 312.661 463.285 310.293 468.019 307.081 L 483.068 325.343 C 483.068 326.019 483.068 326.527 483.237 327.203 C 483.575 328.894 484.758 330.585 486.449 331.092 C 486.957 331.261 487.464 331.261 487.633 331.769 C 487.802 331.938 487.802 332.276 487.802 332.445 C 487.971 333.798 489.324 334.643 490.676 334.474 L 501.836 348.002 C 501.836 348.678 502.174 349.355 502.681 349.693 C 503.019 349.862 503.527 350.031 503.527 350.539 C 503.527 350.708 503.527 350.877 503.357 351.046 C 503.188 351.553 503.357 352.399 503.865 352.737 C 504.372 353.075 505.048 353.244 505.556 352.906 C 505.556 354.09 506.739 355.273 507.923 355.442 L 519.42 369.308 C 520.266 370.323 521.618 370.999 522.971 370.999 L 523.478 370.999 L 523.478 360.008 L 515.193 350.031 L 515.531 349.693 C 516.039 349.186 516.377 348.848 517.053 348.34 L 517.222 348.848 C 517.222 348.848 519.758 348.002 523.478 346.649 L 523.478 338.364 C 518.744 341.238 515.024 343.606 515.024 343.606 L 515.024 343.775 C 514.855 343.775 514.855 343.775 514.686 343.944 C 514.179 344.113 512.15 343.944 510.29 343.944 L 498.961 330.416 C 500.99 329.909 503.865 329.063 506.739 328.049 L 506.908 328.049 C 507.246 327.88 507.585 327.88 508.092 327.71 C 508.261 327.71 508.43 327.541 508.43 327.541 C 508.768 327.372 509.106 327.372 509.275 327.203 C 509.444 327.203 509.614 327.034 509.783 327.034 C 510.121 326.865 510.29 326.865 510.628 326.696 C 510.797 326.696 510.966 326.527 511.135 326.527 C 511.473 326.358 511.643 326.358 511.981 326.189 C 512.15 326.189 512.319 326.019 512.488 326.019 C 512.826 325.85 512.995 325.85 513.333 325.681 C 513.502 325.681 513.671 325.512 513.841 325.512 C 514.179 325.343 514.348 325.343 514.686 325.174 C 514.855 325.174 515.024 325.005 515.024 325.005 C 515.362 324.836 515.7 324.667 516.208 324.498 L 516.377 324.498 C 516.715 324.328 517.222 324.159 517.56 323.99 C 517.729 323.99 517.729 323.821 517.899 323.821 C 518.237 323.652 518.406 323.483 518.744 323.483 C 518.913 323.483 519.082 323.314 519.082 323.314 C 519.251 323.145 519.589 323.145 519.758 322.976 C 519.928 322.976 520.097 322.807 520.097 322.807 C 520.266 322.638 520.435 322.638 520.604 322.468 C 520.773 322.468 520.942 322.299 520.942 322.299 C 521.111 322.13 521.28 322.13 521.449 321.961 C 521.618 321.961 521.618 321.792 521.787 321.792 C 521.957 321.623 522.126 321.623 522.295 321.454 C 522.464 321.454 522.464 321.285 522.633 321.285 C 522.802 321.116 522.971 321.116 523.14 320.947 L 523.309 320.777 L 523.309 276.136 C 523.14 276.305 522.802 276.474 522.633 276.812 C 518.068 281.716 514.855 312.83 514.855 314.014 C 514.686 314.859 501.836 322.299 495.411 326.019 C 495.411 325.174 495.072 324.159 494.565 323.652 C 493.889 322.976 493.043 322.468 492.029 322.13 L 491.691 322.13 L 474.783 301.669 C 475.966 300.317 477.15 298.964 478.164 297.442 C 484.42 288.48 486.787 277.827 484.928 267.174 C 483.068 256.52 477.15 247.22 468.188 240.964 C 459.227 234.707 448.575 232.34 437.923 234.2 C 427.271 236.06 417.971 241.978 411.715 250.94 C 399.034 268.865 403.43 294.229 421.86 307.081 Z M 419.155 255.844 C 424.058 248.911 431.159 244.345 439.444 242.824 C 441.304 242.485 443.164 242.316 445.024 242.316 C 451.449 242.316 457.705 244.345 462.947 248.066 C 469.879 252.969 474.444 260.072 475.966 268.357 C 477.488 276.643 475.628 285.098 470.725 291.862 C 465.821 298.795 458.72 303.36 450.435 304.882 C 442.15 306.404 433.696 304.544 426.932 299.64 C 412.729 289.664 409.179 270.048 419.155 255.844 Z" fill="rgb(90,181,226)" opacity="0.44999998807907104"></path><path d="M 131.546 453.011 C 131.546 451.517 147.519 450.306 167.222 450.306 C 186.926 450.306 202.899 451.517 202.899 453.011 C 202.899 454.506 186.926 455.717 167.222 455.717 C 147.519 455.717 131.546 454.506 131.546 453.011 Z" fill="rgb(189,238,255)" opacity="0.3499999940395355"></path><path d="M 213.72 313.168 C 213.72 313.168 217.609 317.734 218.454 318.072 C 218.961 318.241 222.005 318.748 222.85 318.917 C 223.188 318.917 223.527 319.086 223.865 319.256 C 224.203 319.425 224.541 319.763 224.71 319.932 L 226.739 322.468 C 226.908 322.637 227.077 322.976 227.246 323.145 C 227.415 323.483 227.415 323.821 227.585 324.159 C 228.092 326.019 228.43 328.049 228.768 330.078 L 228.768 330.416 C 228.599 330.585 228.261 330.585 228.092 330.416 L 227.585 329.909 L 227.585 330.416 C 227.246 330.585 226.908 330.416 226.57 330.247 C 225.217 329.401 223.865 328.387 223.188 326.865 C 223.019 326.527 222.85 326.358 222.681 326.019 C 222.005 325.343 221.159 325.343 220.314 325.174 C 219.638 325.005 218.792 324.836 218.116 324.498 C 216.763 323.99 216.594 322.299 216.594 322.13 C 216.594 321.961 216.425 321.792 216.256 321.792 C 215.411 321.116 212.029 318.579 212.029 318.579" fill="rgb(255,190,157)"></path><path d="M 167.56 214.584 C 169.42 215.092 170.435 217.459 171.111 219.15 C 171.957 221.179 172.295 223.208 172.464 225.407 C 172.633 226.928 172.802 228.45 172.126 229.803 C 171.787 230.48 171.449 231.156 170.942 231.663 C 170.604 232.001 170.435 232.34 170.097 232.509 C 169.758 232.678 169.251 232.847 168.913 232.678 C 168.406 232.509 168.068 231.832 167.899 231.156 C 166.884 227.267 165.7 223.377 163.502 219.826" fill="rgb(23,13,84)"></path><path d="M 169.589 226.928 C 169.589 225.745 170.942 224.899 172.126 226.083 C 173.14 227.098 173.309 229.127 173.309 230.649 C 173.309 232.509 171.957 232.847 170.773 233.016" fill="rgb(242,161,129)"></path><path d="M 183.116 439.315 C 183.116 439.315 183.116 443.204 182.947 444.557 C 182.609 445.909 178.382 445.402 177.874 444.726 C 177.536 443.88 178.043 437.624 178.043 437.624" fill="rgb(255,204,176)"></path><path d="M 176.522 445.909 C 176.353 447.262 176.353 449.968 176.353 449.968 L 180.749 450.982 L 181.256 450.137 C 181.256 450.137 182.44 451.151 183.961 451.49 C 184.976 451.828 187.174 451.997 188.188 451.828 C 191.908 451.659 194.444 450.475 194.614 449.968 C 195.121 447.769 190.217 447.939 189.203 447.939 C 186.329 447.769 184.469 445.571 183.792 444.218 C 183.454 443.204 183.623 442.866 182.947 443.035 C 182.947 443.035 182.44 443.035 181.932 443.711 C 181.256 444.557 180.242 445.233 179.058 444.895 C 178.382 444.726 177.874 444.387 177.367 443.88 C 177.705 444.218 176.691 444.557 176.522 445.909 Z" fill="rgb(232,80,91)"></path><path d="M 174.493 392.475 C 175 385.711 169.42 376.749 169.42 376.749 C 169.42 376.749 184.13 368.632 184.3 366.265 C 184.3 366.265 186.329 380.131 187.005 384.865 C 188.188 393.32 183.961 441.682 183.961 441.682 C 183.961 441.682 180.918 442.527 176.86 441.851 C 176.86 441.851 176.184 423.25 172.971 410.568 C 171.787 404.481 173.986 394.166 174.493 392.475 Z" fill="rgb(62,137,204)"></path><path d="M 173.309 315.028 C 178.72 327.372 184.807 366.941 186.159 380.469 C 186.836 386.218 181.932 392.982 176.353 387.74 C 169.589 381.483 160.29 352.906 156.908 347.833 C 153.527 342.76 140.845 338.194 149.469 312.492" fill="rgb(62,137,204)"></path><path d="M 148.792 439.653 C 148.792 439.653 148.285 445.064 148.116 446.417 C 147.947 447.769 143.551 447.6 143.043 446.924 C 142.536 446.248 142.705 439.822 142.705 439.822" fill="rgb(255,204,176)"></path><path d="M 141.691 447.939 C 141.522 449.291 141.86 451.659 141.86 451.659 L 146.932 451.997 L 147.271 451.151 C 147.271 451.151 148.792 452.166 150.145 452.166 L 154.372 452.504 C 157.415 452.673 159.275 452.504 159.444 451.828 C 159.952 449.63 156.232 449.46 155.217 449.291 C 152.512 449.122 149.469 447.6 148.961 446.078 C 148.623 445.064 148.792 444.726 148.116 444.895 C 148.116 444.895 147.609 444.895 147.271 445.571 C 146.594 446.586 145.58 447.093 144.565 446.755 C 143.889 446.586 143.382 446.248 142.874 445.74 C 142.874 446.078 141.86 446.417 141.691 447.939 Z" fill="rgb(232,80,91)"></path><path d="M 159.614 391.629 C 158.599 396.364 146.256 394.673 146.425 390.445 C 146.763 384.358 142.536 376.749 141.014 348.002 C 140.845 344.789 137.633 344.282 136.28 335.32 C 134.928 326.358 140.338 316.55 140.338 316.55 L 159.444 313.844 C 159.444 313.844 166.884 330.416 165.362 346.988 C 163.841 363.728 160.797 386.049 159.614 391.629 Z" fill="rgb(62,137,204)"></path><path d="M 146.594 389.431 C 146.594 389.431 142.198 398.055 141.691 404.311 C 141.014 413.443 141.86 443.542 141.86 443.542 C 141.86 443.542 146.594 444.557 149.13 443.88 C 149.13 443.88 160.121 390.615 160.628 384.865 C 160.966 378.947 146.594 389.431 146.594 389.431 Z" fill="rgb(62,137,204)"></path><path d="M 180.749 257.197 C 178.551 254.66 171.618 250.602 162.488 250.94 C 156.232 251.109 138.816 252.124 136.957 256.351 C 135.942 258.55 134.928 280.701 136.28 288.311 C 137.295 294.06 140.169 308.264 140.169 311.815 C 140.169 315.197 138.309 316.719 139.155 317.734 C 141.014 319.932 154.372 320.947 160.459 320.947 C 166.039 320.947 175.338 319.425 175.845 317.734 C 176.522 315.028 174.831 315.197 174.493 312.492 C 174.324 309.786 172.971 291.524 174.493 288.987 C 177.029 284.76 179.565 273.768 179.734 270.556 C 180.242 267.343 182.947 259.733 180.749 257.197 Z" fill="rgb(87,198,242)"></path><path d="M 141.353 275.121 C 140.676 276.474 136.28 283.745 136.28 283.745 L 136.111 284.591 C 136.28 286.113 136.449 287.465 136.618 288.48 C 137.633 294.229 140.507 308.433 140.507 311.984 C 140.507 315.366 138.647 316.888 139.493 317.903 C 140.338 318.748 142.874 319.425 146.087 319.932 C 145.411 319.086 144.734 318.241 144.565 317.734 C 144.227 316.719 145.918 317.057 146.256 316.212 C 146.594 315.366 142.367 298.795 141.353 290.678 C 140.338 282.731 142.029 273.768 141.353 275.121 Z" fill="rgb(90,181,226)" opacity="0.44999998807907104"></path><path d="M 167.899 243.162 C 167.899 243.162 167.899 250.771 168.237 251.109 C 168.575 251.448 170.097 252.124 170.097 252.124 C 170.097 252.124 169.082 258.719 167.391 258.211 C 165.7 257.704 154.71 252.124 154.71 252.124 C 154.71 252.124 156.232 251.448 156.232 250.94 C 156.232 250.264 154.71 238.258 154.71 238.258" fill="rgb(255,190,157)"></path><path d="M 160.29 215.43 C 161.812 215.937 166.039 214.923 167.222 216.783 C 168.406 218.474 169.42 222.701 169.928 223.885 C 170.773 226.252 171.449 228.619 171.957 231.156 C 172.802 234.2 174.155 239.949 171.111 242.655 C 170.266 243.331 169.758 243.669 168.744 243.838 C 167.222 244.176 165.87 244.345 164.348 244.684 C 162.15 245.022 159.614 245.529 157.415 244.853 C 154.372 243.838 152.85 239.78 152.005 237.074 L 147.609 221.179 Z" fill="rgb(255,190,157)"></path><path d="M 167.899 260.072 C 167.899 260.072 168.575 288.311 169.589 305.39 L 165.531 311.139 L 162.657 304.037 C 162.657 304.037 161.473 283.407 165.362 260.41 Z M 168.744 257.704 L 168.575 258.042 C 168.406 258.719 168.068 259.395 167.729 260.072 L 165.193 260.241 C 165.193 260.241 163.502 259.395 163.164 258.381 C 162.995 257.366 166.039 255.844 166.039 255.844 L 166.377 256.013 C 167.391 256.351 168.237 256.859 168.744 257.704 Z" fill="rgb(27,34,122)"></path><path d="M 156.063 248.404 C 156.063 248.404 153.865 249.926 152.681 251.955 C 154.034 254.999 157.923 260.072 161.135 262.439 C 162.657 258.381 166.377 256.013 166.377 256.013 C 166.377 256.013 156.908 253.984 156.063 248.404 Z M 166.208 255.844 C 166.208 255.844 169.42 257.028 171.28 260.579 C 171.28 260.579 171.957 255.844 170.604 251.617 C 170.604 251.617 168.913 248.742 168.237 248.742 C 168.406 252.293 166.208 255.844 166.208 255.844 Z" fill="rgb(234,234,234)"></path><path d="M 178.889 255.675 C 184.469 258.719 194.106 290.847 195.121 291.185 C 196.135 291.524 217.947 317.057 217.947 317.057 L 214.565 321.792 C 214.565 321.792 192.585 305.897 186.329 298.795 C 181.932 293.891 173.478 271.908 173.478 271.908 C 173.478 271.908 173.309 252.462 178.889 255.675 Z" fill="rgb(87,198,242)"></path><path d="M 188.357 297.442 C 186.159 295.582 179.227 275.121 179.227 275.121 L 177.536 282.054 C 180.242 288.48 183.792 296.089 186.159 298.626 C 192.415 305.559 214.396 321.623 214.396 321.623 L 215.749 319.763 C 215.918 319.932 190.556 299.471 188.357 297.442 Z" fill="rgb(90,181,226)" opacity="0.44999998807907104"></path><path d="M 150.483 308.941 L 117.174 315.197 C 116.329 315.366 115.652 316.212 115.99 317.226 L 120.386 340.224 C 120.556 341.069 121.401 341.576 122.246 341.407 L 155.556 335.151 C 156.401 334.982 157.077 334.136 156.739 333.122 L 152.174 310.124 C 152.005 309.279 151.159 308.772 150.483 308.941 Z" fill="rgb(254,125,144)"></path><path d="M 149.976 310.632 L 118.188 316.719 L 122.585 339.547 L 154.372 333.629 Z" fill="rgb(229,248,255)"></path><path d="M 150.821 332.445 L 147.44 312.83 M 147.947 332.952 L 144.396 313.506 M 143.551 333.798 L 140 314.352 M 139.155 334.813 L 135.773 315.197 M 134.928 335.658 L 131.039 316.212 M 130.531 336.503 L 126.643 317.057 M 126.304 337.349 L 122.246 317.903" fill="transparent" stroke-width="0.5281999707221985" stroke="rgb(161,210,240)" stroke-linecap="round" stroke-linejoin="round" stroke-dasharray=""></path><path d="M 132.729 325.681 L 134.758 329.74 C 135.266 330.585 138.647 333.629 140.169 335.996 C 140.845 337.18 141.522 338.364 141.353 339.716 C 141.184 341.069 140 342.253 138.647 342.084 C 138.309 342.084 137.802 341.745 137.633 342.084 C 137.464 342.253 137.464 342.422 137.295 342.591 C 136.957 343.098 136.449 343.436 135.773 343.267 C 135.266 343.267 134.758 342.76 134.589 342.084 C 133.744 342.929 132.222 342.929 131.208 342.084 C 131.715 341.576 132.053 341.069 132.053 340.393 C 131.884 339.716 131.377 339.209 131.039 338.702 C 130.362 337.856 130.024 336.673 130.024 335.489 C 130.024 334.643 130.193 333.798 130.362 333.122 C 130.531 331.431 130.193 329.74 129.348 328.218" fill="rgb(255,190,157)"></path><path d="M 142.874 271.908 C 141.86 275.459 126.473 299.133 126.473 299.133 L 134.758 329.063 L 130.024 331.938 C 130.024 331.938 115.483 307.757 115.314 300.824 C 115.314 294.06 125.966 268.865 133.744 258.719 C 136.28 255.506 141.184 253.815 141.184 253.815" fill="rgb(87,198,242)"></path><path d="M 150.483 234.031 C 151.498 233.523 152.343 232.847 152.85 233.861 C 153.188 234.369 153.357 235.045 154.034 235.214 C 154.541 235.383 155.217 234.876 155.386 234.2 C 155.556 233.523 155.386 233.016 155.217 232.34 C 154.879 230.987 154.372 229.803 154.034 228.45 C 153.696 227.098 153.188 225.745 153.696 224.561 C 154.034 223.885 154.372 223.377 154.879 223.039 C 156.57 221.686 158.768 220.841 160.797 220.503 C 162.995 219.995 165.193 219.826 167.222 219.15 C 168.068 218.812 168.913 218.474 169.758 217.966 C 170.942 216.952 171.449 215.43 171.449 213.908 C 171.449 212.386 170.942 211.033 170.266 209.681 C 170.097 210.188 169.928 210.695 169.589 211.202 C 169.251 210.526 168.913 209.85 168.406 209.342 C 167.729 212.893 153.019 211.71 149.638 213.232 C 147.271 214.246 145.242 214.923 145.411 218.812 C 145.411 218.981 145.072 219.319 144.903 219.488 C 142.705 221.348 141.86 223.716 141.691 227.267 C 141.353 231.494 143.889 236.229 146.256 239.78 C 146.932 240.625 147.271 241.302 148.116 241.978 C 148.961 242.655 150.483 242.993 151.498 242.824 C 152.512 242.655 154.71 242.655 154.71 241.64 C 154.71 240.794 153.019 239.442 152.681 238.934" fill="rgb(27,34,122)"></path><path d="M 154.372 238.089 C 154.372 238.089 154.541 238.765 154.034 239.442 C 153.696 239.949 152.85 239.949 152.343 239.611 C 150.821 239.103 149.638 237.582 149.469 236.06 C 149.13 234.2 150.145 232.34 151.836 232.847 C 152.85 233.185 153.527 234.2 153.357 235.214" fill="rgb(255,190,157)"></path><path d="M 167.899 243.838 L 163.164 244.684 C 163.164 244.684 164.686 246.375 167.899 246.375" fill="rgb(242,161,129)"></path><path d="M 178.551 392.306 C 179.396 389.431 177.029 385.203 175.845 381.822 C 174.662 378.609 165.7 352.568 165.7 352.568 L 163.671 363.052 C 165.531 367.617 167.56 372.352 169.589 376.58 C 170.435 378.27 171.111 379.792 171.957 381.145 C 173.309 384.358 174.831 388.585 174.662 392.306 C 174.155 393.997 171.957 404.311 173.309 410.23 C 176.353 422.912 177.198 441.513 177.198 441.513 C 178.043 441.682 178.72 441.682 179.396 441.851 C 179.058 437.285 178.72 429.169 178.72 427.478 C 178.72 425.28 175.845 412.09 176.014 407.017 C 176.014 401.944 177.536 395.18 178.551 392.306 Z" fill="rgb(38,121,196)"></path><path d="M 155.894 326.189 L 153.019 326.865 L 150.99 316.212 L 153.865 315.535 Z" fill="rgb(254,125,144)"></path><path d="M 159.952 319.932 C 159.614 318.579 158.261 317.565 156.908 317.903 L 153.527 318.579 L 154.541 323.652 C 154.541 323.652 157.246 323.145 157.923 322.976 C 159.275 322.638 160.121 321.285 159.952 319.932 Z M 155.894 320.608 C 155.725 319.763 156.232 319.086 157.077 318.917 C 157.923 318.748 158.599 319.256 158.768 320.101 C 158.937 320.947 158.43 321.623 157.585 321.792 C 156.739 321.961 155.894 321.454 155.894 320.608 Z" fill="rgb(254,125,144)"></path><path d="M 222.174 473.81 C 222.174 471.943 238.752 470.428 259.203 470.428 C 279.653 470.428 296.232 471.943 296.232 473.81 C 296.232 475.678 279.653 477.192 259.203 477.192 C 238.752 477.192 222.174 475.678 222.174 473.81 Z" fill="rgb(189,238,255)" opacity="0.3499999940395355"></path><path d="M 304.855 272.923 L 282.029 269.879 L 282.029 315.535 L 294.372 317.226 C 295.386 317.395 296.401 316.719 296.739 315.705 L 306.546 275.29 C 306.884 274.107 306.039 273.092 304.855 272.923 Z" fill="rgb(90,181,226)" opacity="0.44999998807907104"></path><path d="M 276.111 267.681 L 267.995 303.699 C 267.826 304.713 268.502 305.728 269.348 305.728 L 294.879 309.448 C 295.725 309.617 296.57 308.941 296.739 308.095 L 304.855 272.077 C 305.024 271.063 304.348 270.048 303.502 270.048 L 277.971 266.328 C 277.126 266.159 276.28 266.835 276.111 267.681 Z" fill="rgb(87,198,242)"></path><path d="M 277.802 268.865 L 269.855 303.36 L 295.217 306.911 L 303.164 272.416 Z" fill="rgb(229,248,255)"></path><path d="M 300.459 274.952 L 278.816 271.908 M 299.614 278.334 L 278.14 275.121 M 290.652 281.04 L 277.295 279.01 M 289.807 283.745 L 276.28 281.885 M 288.792 286.62 L 275.266 284.591 M 293.696 302.008 L 280.338 300.148" fill="transparent" stroke-width="0.5281999707221985" stroke="rgb(161,210,240)" stroke-linecap="round" stroke-linejoin="round" stroke-dasharray=""></path><path d="M 266.304 304.206 C 267.826 303.53 268.841 302.346 269.855 300.993 L 272.899 297.442 C 273.237 296.935 273.744 296.427 273.744 295.751 C 272.053 295.582 270.87 297.78 269.179 297.949 C 270.024 295.075 271.039 292.369 272.56 290.002 C 272.899 289.325 273.237 288.649 273.068 287.973 C 271.208 288.649 269.686 290.002 268.333 291.355 C 267.319 292.369 266.473 293.384 265.797 294.567 C 263.599 297.949 262.246 301.839 261.232 305.897" fill="rgb(242,161,129)"></path><path d="M 259.034 333.122 L 240.773 317.734 C 240.773 317.734 232.319 329.232 235.531 340.393 C 237.053 345.804 239.082 348.509 239.928 351.215 C 240.773 353.582 246.184 387.909 245.845 390.445 C 245.507 392.982 242.464 399.915 241.449 407.355 C 240.097 416.148 240.266 445.064 239.251 452.673 C 238.237 460.283 245.338 461.635 245.676 459.099 C 249.058 436.947 257.85 402.451 259.034 391.46 C 260.048 380.131 259.541 359.839 259.034 333.122 Z" fill="rgb(255,190,157)"></path><path d="M 259.034 354.935 L 251.087 373.198 C 254.469 378.778 256.329 385.542 256.667 392.306 C 256.836 395.857 256.498 399.408 256.667 402.79 C 256.667 402.959 256.667 403.297 256.836 403.635 C 257.85 398.393 258.696 394.166 259.034 391.291 C 259.879 383.513 259.879 370.999 259.71 354.935 Z" fill="rgb(242,161,129)"></path><path d="M 246.691 451.828 C 246.691 451.828 245 459.775 245.507 460.959 C 246.014 461.974 247.536 465.017 249.227 466.032 C 250.918 467.216 254.976 468.568 255.145 468.907 C 255.483 469.414 255.483 470.09 254.976 470.598 C 253.454 471.781 251.087 472.289 249.396 471.95 C 244.155 471.105 243.478 468.738 240.435 468.399 C 239.928 468.399 238.913 469.076 237.391 468.399 C 235.87 467.723 235.193 466.201 235.362 465.017 C 235.531 462.819 236.884 460.959 237.729 459.268 C 238.575 457.577 239.251 450.137 239.251 450.137" fill="rgb(255,190,157)"></path><path d="M 255.483 470.936 C 255.821 470.259 255.99 469.245 255.652 469.076 C 255.145 468.738 253.454 467.554 252.271 467.047 C 251.256 466.539 249.565 466.201 250.242 466.539 C 250.749 466.877 249.734 468.061 248.72 467.892 C 245.338 467.723 242.971 465.525 241.111 465.017 C 238.406 464.341 237.222 461.128 237.053 460.621 C 236.546 460.959 235.362 463.495 235.024 464.341 C 234.855 465.017 234.348 466.37 234.686 467.216 C 234.855 467.723 235.193 468.737 235.024 469.921 C 235.024 469.921 235.531 470.259 237.053 470.598 C 237.899 470.767 239.082 470.598 239.082 470.598 L 239.251 468.907 C 239.251 468.907 239.928 468.907 240.942 469.076 C 241.957 469.245 243.478 470.09 243.478 470.259 C 243.816 470.767 244.155 471.612 244.662 471.781 C 246.014 472.458 247.367 472.796 249.058 472.796 C 252.778 473.134 254.807 471.95 255.483 470.936 Z" fill="rgb(27,34,122)"></path><path d="M 283.889 470.598 C 283.551 470.09 279.324 469.414 277.295 468.568 C 275.435 467.723 273.068 465.186 272.729 464.172 C 272.222 463.157 272.391 457.577 272.391 455.379 C 272.729 439.653 275.773 401.099 276.111 391.967 C 276.787 375.903 274.758 359.332 268.671 333.629 L 245.676 316.043 C 245.676 316.043 239.251 328.049 241.449 339.378 C 242.633 345.973 248.213 346.988 249.058 349.524 C 250.072 352.06 263.937 393.658 263.937 393.658 C 263.937 393.658 261.232 402.62 261.063 412.428 C 260.894 420.883 264.783 446.248 265.459 455.886 C 265.459 457.746 265.797 462.312 265.29 463.665 C 264.614 465.356 262.923 467.554 262.923 469.752 C 262.923 471.105 263.937 472.289 265.459 472.796 C 267.15 473.303 267.995 472.289 268.502 472.289 C 271.715 472.119 272.56 474.318 278.309 474.318 C 280 474.318 282.536 473.303 283.889 471.95 C 284.396 471.781 284.227 470.936 283.889 470.598 Z" fill="rgb(255,190,157)"></path><path d="M 284.396 472.458 C 284.734 471.781 284.734 470.767 284.227 470.598 C 283.72 470.428 281.691 469.414 280.507 469.245 C 279.324 468.907 277.633 468.737 278.309 469.076 C 278.986 469.245 277.971 470.598 276.957 470.767 C 273.575 471.105 270.7 469.245 268.671 469.245 C 265.797 469.076 264.614 466.032 264.444 465.525 C 263.937 465.863 262.585 468.737 262.415 469.583 C 262.246 470.428 262.077 471.781 262.415 472.458 C 262.585 472.965 263.092 473.98 263.092 475.163 C 263.092 475.163 263.768 475.501 265.29 475.501 C 266.304 475.501 267.488 475.163 267.488 475.163 L 267.488 473.472 C 267.488 473.472 268.333 473.303 269.179 473.303 C 270.193 473.303 271.377 473.81 272.053 474.318 C 272.56 474.656 273.068 475.332 273.575 475.501 C 275.266 475.84 276.28 476.009 278.14 475.84 C 281.86 475.163 283.889 473.81 284.396 472.458 Z M 241.28 315.874 C 239.758 317.565 234.179 326.865 234.179 334.305 C 234.179 341.915 236.715 346.649 237.053 348.171 C 238.744 359.67 240.435 373.536 240.435 374.381 C 240.435 375.058 247.029 379.454 255.821 378.947 C 272.053 377.932 278.309 373.705 278.309 373.705 C 278.309 373.705 277.464 345.804 275.097 332.107 C 273.913 325.174 268.333 314.183 268.333 314.183" fill="rgb(27,34,122)"></path><path d="M 226.401 285.774 C 226.401 285.774 228.937 298.795 229.783 300.993 C 230.459 303.36 233.841 317.903 237.053 317.734 C 240.266 317.395 257.85 302.853 257.85 302.853 L 255.314 297.949 L 239.758 305.39 C 239.758 305.39 238.406 288.649 237.053 284.591" fill="rgb(255,190,157)"></path><path d="M 232.488 293.722 C 234.179 299.471 237.56 305.559 238.575 310.124 C 238.744 310.97 249.565 307.081 249.565 303.022" fill="rgb(242,161,129)"></path><path d="M 236.884 267.681 C 236.884 267.681 231.812 268.188 229.106 270.217 C 222.512 275.29 227.585 293.722 227.585 293.722 C 227.585 293.722 227.246 294.736 231.643 294.398 C 236.039 294.229 239.758 292.876 239.758 292.876 L 238.406 277.827" fill="rgb(232,80,91)"></path><path d="M 231.135 278.165 C 231.135 278.165 230.628 288.987 232.488 294.567 C 234.348 294.567 236.208 294.06 236.208 294.06 Z" fill="rgb(176,61,68)"></path><path d="M 261.57 233.692 C 264.614 237.751 264.106 243.331 263.261 248.404 C 262.923 250.94 262.415 253.477 262.077 256.013 C 261.908 257.197 261.57 258.55 260.725 259.226 C 259.71 260.072 258.357 260.072 257.174 259.902 L 257.174 266.159 C 253.623 266.328 250.072 266.328 246.353 266.159 C 246.353 264.637 246.014 263.284 245.338 261.932 C 243.647 261.932 242.464 260.072 241.787 258.55 C 240.942 256.69 240.435 254.66 239.928 252.8 C 239.251 250.264 238.406 247.558 238.406 244.853 C 238.406 242.147 238.913 239.442 240.604 237.243 C 241.787 235.891 243.309 234.876 245 234.031 C 247.198 232.847 249.903 232.001 252.271 233.016" fill="rgb(255,190,157)"></path><path d="M 257.85 252.8 C 257.343 250.771 257.512 249.418 258.188 248.066 C 258.357 247.558 258.696 247.22 259.203 246.882 C 259.71 246.544 260.556 246.375 261.063 246.713 C 261.401 246.882 261.739 247.22 262.077 247.558 C 262.754 244.684 262.923 241.64 262.754 238.765 C 262.415 234.031 259.541 230.48 255.483 228.789 C 247.874 225.745 236.884 228.789 233.841 236.229 C 231.473 241.809 232.657 249.926 237.222 254.66 C 241.111 258.888 246.86 259.395 252.101 258.55 C 254.807 258.042 258.865 258.381 260.386 254.66 C 260.556 254.322 260.217 254.153 260.048 254.153 C 258.696 254.491 257.85 253.139 257.85 252.8 Z" fill="rgb(27,34,122)"></path><path d="M 258.357 242.824 C 258.696 243.331 258.527 243.838 258.865 244.345 C 259.372 245.191 259.879 245.36 260.725 245.698 C 262.077 246.375 261.739 248.235 261.739 249.08 C 262.754 248.404 262.923 246.713 263.092 245.698 C 263.43 244.684 263.599 243.669 263.768 242.655 C 264.106 241.64 264.614 240.794 264.614 239.78 C 264.952 236.229 262.754 232.17 260.048 230.141 C 258.019 228.619 255.145 228.789 252.947 230.141 C 252.101 230.818 251.256 231.663 250.918 232.678 C 250.749 233.185 250.58 233.692 250.918 234.031" fill="rgb(27,34,122)"></path><path d="M 241.111 267.85 C 241.28 266.666 241.618 265.144 242.802 264.637 C 243.14 264.468 243.478 264.468 243.816 264.468 C 247.367 264.13 250.918 263.961 254.3 263.961 C 255.821 263.961 257.343 264.13 258.527 264.637 C 260.556 265.652 261.739 267.85 262.754 269.879" fill="rgb(176,61,68)"></path><path d="M 270.7 312.83 C 270.193 312.153 269.01 311.308 268.671 310.463 C 267.657 308.602 266.812 300.486 267.15 298.457 C 267.488 296.258 269.517 295.075 270.362 290.171 C 271.546 283.914 268.841 279.01 267.488 276.812 C 265.459 273.768 266.643 273.938 265.966 270.217 C 265.797 269.541 265.628 268.865 265.29 268.357 C 264.783 267.85 261.739 266.497 261.232 266.497 C 255.483 265.652 252.271 266.328 246.522 266.497 C 243.647 266.666 240.773 267.005 238.068 267.512 C 235.024 268.188 232.319 269.034 231.643 273.261 C 230.628 279.687 231.473 286.282 233.502 292.538 C 234.855 296.597 242.633 310.801 240.604 313.506 C 240.097 314.183 239.082 315.366 238.913 316.043 C 238.406 318.917 244.831 319.932 247.705 320.101 C 251.932 320.439 256.667 320.27 260.894 320.101 C 264.106 319.932 271.039 318.917 271.546 314.859 C 271.546 314.014 271.208 313.337 270.7 312.83 Z" fill="rgb(232,80,91)"></path><path d="M 269.517 291.355 C 269.517 292.538 268.841 294.06 268.671 294.567 C 267.826 294.906 264.614 295.582 262.923 294.906 C 262.585 291.185 260.217 283.745 260.217 283.745 C 260.217 283.745 269.517 290.34 269.517 291.355 Z" fill="rgb(176,61,68)"></path><path d="M 242.971 256.182 C 240.773 255.506 238.406 256.859 236.884 258.55 C 235.193 260.579 234.517 263.623 236.039 265.821 C 236.546 266.666 237.391 267.174 238.406 267.681 C 240.942 269.203 244.155 270.048 247.029 269.203 C 249.903 268.526 252.44 265.821 252.44 262.946 C 252.44 260.241 250.411 258.042 248.382 256.182" fill="rgb(27,34,122)"></path><path d="M 265.459 288.649 C 265.459 288.649 275.942 314.014 280.507 314.014 C 283.889 314.014 292.005 290.509 292.005 290.509 L 286.932 288.142 L 281.184 297.949 L 275.435 279.687" fill="rgb(255,190,157)"></path><path d="M 285.918 290.002 C 285.918 290.002 287.609 287.296 287.44 285.436 C 287.44 284.76 286.932 281.209 287.271 280.532 C 287.609 279.856 288.454 277.658 288.961 277.15 C 289.469 276.643 291.329 275.967 291.667 276.305 C 292.174 276.643 292.681 275.121 293.357 275.29 C 294.034 275.459 294.71 275.967 294.71 276.643 C 294.71 277.319 295.725 277.489 295.894 277.996 C 296.063 278.503 295.894 278.841 296.063 279.349 C 296.232 279.687 296.739 279.518 296.908 280.532 C 297.077 281.378 296.908 281.378 296.908 281.885 C 296.908 282.392 297.415 282.223 297.246 283.069 C 297.077 283.914 296.57 284.929 296.063 285.943 C 295.556 286.789 294.541 287.973 293.188 288.818 C 292.512 289.156 292.174 290.002 291.498 291.185" fill="rgb(255,190,157)"></path><path d="M 288.623 270.386 C 288.454 270.217 288.116 269.879 287.778 270.217 C 287.44 270.556 287.44 271.063 287.609 271.232 C 287.778 271.401 290.652 278.334 290.652 278.334 C 290.652 278.334 290.821 278.672 291.329 278.165 C 291.836 277.658 291.667 277.489 291.667 277.489 C 291.667 277.489 288.792 270.556 288.623 270.386 Z" fill="rgb(27,34,122)"></path><path d="M 292.005 276.812 C 291.329 277.827 290.652 278.165 290.145 278.841 C 289.638 279.349 289.638 279.518 289.13 280.025 C 290.145 280.025 289.976 279.349 291.159 278.503 C 291.667 278.165 292.343 277.658 292.343 276.981 C 292.343 276.812 292.174 276.643 292.005 276.812 Z" fill="rgb(242,161,129)"></path><path d="M 255.821 265.99 C 258.527 266.159 266.473 264.806 271.039 269.372 C 274.758 273.261 276.957 283.407 278.309 287.634 C 274.589 291.355 271.039 294.398 265.459 293.215 C 265.29 293.045 262.415 284.252 260.386 283.407" fill="rgb(232,80,91)"></path><path d="M 258.865 378.778 C 257.85 372.014 251.425 351.384 251.087 350.708 C 247.536 348.002 245.338 345.297 244.155 342.929 C 243.309 347.495 245.507 351.891 247.367 356.119 C 250.749 363.39 252.778 371.338 255.652 378.947" fill="rgb(23,13,84)"></path><path d="M 529.058 273.261 C 524.493 278.165 521.28 309.279 521.28 310.463 C 521.111 311.646 498.285 324.498 498.285 324.498 L 501.498 328.218 C 501.498 328.218 525.845 322.13 530.242 316.719 C 533.961 312.153 542.585 275.459 542.585 275.459 C 542.585 275.459 536.667 265.144 529.058 273.261 Z" fill="rgb(87,198,242)"></path><path d="M 496.594 483.618 C 496.594 481.003 527.026 478.883 564.565 478.883 C 602.105 478.883 632.536 481.003 632.536 483.618 C 632.536 486.233 602.105 488.353 564.565 488.353 C 527.026 488.353 496.594 486.233 496.594 483.618 Z" fill="rgb(189,238,255)" opacity="0.3499999940395355"></path><path d="M 598.889 458.761 C 598.889 458.761 600.749 462.312 601.763 463.495 C 602.778 464.679 606.836 462.143 606.836 461.128 C 606.836 460.283 603.285 454.533 603.285 454.533" fill="rgb(255,190,157)"></path><path d="M 608.527 461.466 C 609.372 462.65 610.894 465.186 610.894 465.186 L 607.343 468.399 L 606.329 468.061 C 606.329 468.061 605.652 469.752 604.638 470.767 C 603.792 471.612 601.932 472.796 600.918 473.303 C 597.367 474.994 594.324 475.163 593.986 474.825 C 592.295 472.965 597.029 470.767 597.874 470.259 C 600.411 468.568 601.087 465.694 600.918 464.003 C 600.749 462.819 600.411 462.65 601.087 462.481 C 601.087 462.481 601.594 462.312 602.271 462.65 C 603.285 463.157 604.638 463.157 605.483 462.312 C 605.99 461.805 606.498 461.297 606.498 460.621 C 606.498 460.452 607.681 460.283 608.527 461.466 Z" fill="rgb(27,34,122)"></path><path d="M 531.932 471.105 C 531.932 471.105 531.087 473.303 531.087 474.825 C 531.256 476.347 535.99 476.347 536.667 475.67 C 537.174 474.994 537.512 468.23 537.512 468.23" fill="rgb(255,190,157)"></path><path d="M 538.019 476.854 C 538.019 478.376 537.512 480.913 537.512 480.913 L 531.932 480.913 L 531.594 480.067 C 531.594 480.067 529.734 480.913 528.382 480.913 L 523.647 480.913 C 520.266 480.913 518.237 480.574 518.237 479.898 C 517.899 477.531 521.957 477.531 522.971 477.531 C 526.014 477.531 529.396 476.178 530.072 474.656 C 530.58 473.641 530.411 473.303 530.918 473.472 C 530.918 473.472 531.425 473.641 531.932 474.318 C 532.44 475.332 533.623 476.009 534.807 475.84 C 535.483 475.67 536.159 475.501 536.667 474.994 C 536.836 474.994 538.019 475.332 538.019 476.854 Z" fill="rgb(27,34,122)"></path><path d="M 560.338 369.985 C 560.338 370.154 555.773 365.081 555.773 365.25 C 553.913 374.381 545.628 404.65 542.923 412.597 C 542.585 413.781 540.386 416.148 538.527 416.486 C 534.469 417.501 527.874 416.148 527.367 408.37 C 527.367 407.524 527.536 406.51 527.367 405.495 C 526.184 393.489 537.681 340.562 538.019 337.18 C 538.357 333.798 544.952 336.165 546.812 335.658 C 556.111 332.445 562.705 357.302 560.338 369.985 Z" fill="rgb(232,80,91)"></path><path d="M 543.43 416.656 C 541.57 411.075 544.444 404.481 544.444 404.481 C 544.444 404.481 528.382 392.136 527.536 399.746 C 527.536 400.422 526.86 405.495 526.86 408.37 C 526.86 418.685 530.411 451.151 530.242 471.105 L 530.242 472.458 C 530.242 472.458 532.947 472.965 537.681 472.965 L 538.357 472.965 C 539.71 460.621 542.585 443.711 543.937 426.801 C 544.106 422.405 543.768 417.67 543.43 416.656 Z M 584.179 414.119 C 580.966 410.061 577.585 408.37 576.57 405.326 C 574.203 398.224 574.879 369.647 574.71 361.699 C 575.386 360.008 581.473 343.775 568.961 331.938 C 568.961 331.938 557.633 336.842 548.671 337.349 C 541.57 337.856 538.019 337.18 538.019 337.18 C 538.019 337.18 544.783 347.326 545.121 351.722 C 545.797 359.332 560 405.326 561.184 407.863 C 563.72 413.612 566.425 415.81 567.271 416.994 C 573.527 425.28 588.406 442.527 599.565 459.099 L 600.242 460.114 C 600.242 460.114 602.44 459.268 606.667 456.393 C 600.749 445.571 594.493 426.801 584.179 414.119 Z" fill="rgb(232,80,91)"></path><path d="M 529.058 273.261 C 531.256 270.725 540.894 266.666 550.531 267.005 C 557.126 267.174 577.923 269.372 579.952 273.768 C 580.966 275.967 580.797 297.442 579.444 305.22 C 578.261 311.139 574.879 326.527 574.879 330.078 C 574.879 333.629 576.739 335.151 575.894 336.165 C 573.865 338.533 558.986 339.547 552.56 339.547 C 546.812 339.547 537.174 338.025 536.667 336.165 C 535.99 333.46 537.85 333.46 538.019 330.754 C 538.188 327.88 539.541 309.11 538.019 306.404 C 535.314 302.008 531.256 289.833 531.087 286.451 C 530.749 283.069 526.86 275.798 529.058 273.261 Z" fill="rgb(87,198,242)"></path><path d="M 544.952 258.888 C 544.952 258.888 544.952 266.835 544.614 267.174 C 544.275 267.512 542.754 268.188 542.754 268.188 C 542.754 268.188 543.937 275.121 545.628 274.614 C 547.319 274.107 558.816 268.357 558.816 268.357 C 558.816 268.357 557.126 267.681 557.126 267.005 C 557.126 266.328 558.647 253.815 558.647 253.815" fill="rgb(255,190,157)"></path><path d="M 547.995 232.678 C 546.643 231.663 544.614 231.663 543.092 232.34 C 541.57 233.016 540.386 234.538 539.71 236.229 C 539.034 237.751 538.865 239.611 539.71 241.133 C 538.527 241.471 537.85 242.824 537.85 244.007 C 537.85 245.36 538.696 246.544 539.372 247.727 C 540.048 248.742 541.401 249.418 542.585 249.08 C 543.43 248.911 544.106 248.235 544.614 247.558 C 545.121 246.882 545.459 246.036 545.797 245.191 C 547.319 241.471 548.333 237.413 549.01 233.523" fill="rgb(23,13,84)"></path><path d="M 552.899 229.972 C 551.208 230.48 546.812 229.465 545.628 231.325 C 544.444 233.185 543.43 237.582 542.923 238.765 C 542.077 241.133 541.401 243.669 540.725 246.206 C 539.879 249.418 537.681 255.506 540.894 258.211 C 541.739 259.057 542.923 259.057 544.106 259.226 C 545.628 259.564 547.15 259.733 548.671 260.072 C 551.039 260.41 553.575 260.917 555.942 260.241 C 558.986 259.226 560.676 254.999 561.522 252.124 L 566.087 235.552 Z" fill="rgb(255,190,157)"></path><path d="M 559.662 253.815 C 559.662 253.815 559.493 254.66 560.169 255.168 C 560.676 255.675 561.522 255.506 562.029 255.168 C 563.551 254.491 564.565 252.8 564.565 251.109 C 564.734 249.08 563.382 247.389 561.691 248.066 C 560.676 248.404 560.169 249.757 560.338 250.771" fill="rgb(255,190,157)"></path><path d="M 563.889 244.853 C 563.382 246.544 562.029 250.264 560.507 249.926 C 558.986 249.588 561.184 243.669 562.367 241.471 C 560.507 241.471 558.14 241.133 557.464 239.442 C 557.295 239.103 557.126 238.596 556.787 238.427 C 556.449 238.427 556.111 238.596 555.942 238.765 C 554.589 239.611 552.899 238.765 551.715 237.582 C 551.546 237.243 551.208 237.074 550.87 237.074 C 550.7 237.074 550.531 237.243 550.362 237.413 C 548.164 238.934 542.415 238.934 542.415 236.229 C 540.556 237.243 539.372 234.876 539.372 233.185 C 539.541 231.663 540.725 228.958 543.261 228.958 C 543.092 226.928 544.614 225.745 546.304 224.561 C 547.826 223.377 549.855 222.87 551.884 222.701 C 554.928 222.532 558.478 223.885 559.662 226.759 C 559.662 226.928 559.831 227.267 560 227.267 C 560.169 227.436 560.507 227.267 560.676 227.267 C 563.043 226.59 565.749 226.928 567.609 228.619 C 569.469 230.31 569.976 233.185 568.623 235.214 C 570.483 235.722 571.498 237.751 571.159 239.611 C 570.821 241.471 569.638 242.993 568.454 244.345 C 570.483 245.022 571.159 247.727 570.145 249.418 C 569.13 251.278 566.594 252.293 564.565 251.955 C 565.072 250.095 564.227 247.897 562.367 247.558 M 545.121 276.474 C 545.121 276.474 544.444 305.728 543.261 323.483 L 547.488 329.401 L 550.362 321.961 C 550.362 321.961 551.546 300.486 547.488 276.643 Z" fill="rgb(27,34,122)"></path><path d="M 544.106 273.938 L 544.275 274.276 C 544.444 274.952 544.783 275.798 545.121 276.474 L 547.826 276.643 C 547.826 276.643 549.686 275.628 549.855 274.614 C 550.024 273.599 546.981 271.908 546.981 271.908 L 546.643 272.077 C 545.628 272.585 544.783 273.092 544.106 273.938 Z" fill="rgb(23,13,84)"></path><path d="M 557.295 264.13 C 557.295 264.13 559.493 265.821 560.845 267.681 C 559.493 270.725 555.435 276.136 552.053 278.503 C 550.531 274.276 546.643 271.739 546.643 271.739 C 546.643 271.739 556.449 270.048 557.295 264.13 Z" fill="rgb(234,234,234)"></path><path d="M 546.812 272.077 C 546.812 272.077 543.599 273.43 541.57 276.981 C 541.57 276.981 540.894 272.077 542.246 267.681 C 542.246 267.681 543.937 264.637 544.783 264.637 C 544.444 268.188 546.812 272.077 546.812 272.077 Z" fill="rgb(234,234,234)"></path><path d="M 543.43 416.656 C 542.923 415.303 542.754 413.95 542.754 412.597 C 542.754 412.597 542.754 412.428 542.923 412.428 C 544.783 407.017 549.179 391.629 552.391 379.285 L 547.319 361.53 C 547.319 361.53 544.275 397.717 543.261 400.422 C 542.246 402.959 539.203 411.414 539.541 413.274 C 539.879 415.134 541.739 418.347 541.57 421.221 C 541.232 424.096 541.232 449.63 541.232 449.799 C 542.246 442.358 543.261 434.58 543.768 426.632 C 544.106 422.405 543.768 417.67 543.43 416.656 Z" fill="rgb(176,61,68)"></path><g transform="translate(415.306 234.479)"><path d="M 15.392 65.547 C -0.913 54.155 -4.897 31.701 6.494 15.394 C 17.885 -0.913 40.337 -4.897 56.643 6.495 C 72.948 17.886 76.932 40.341 65.541 56.648 C 54.15 72.955 31.698 76.939 15.392 65.547 Z" fill="transparent" stroke-width="5.282" stroke="rgb(27,34,122)" stroke-miterlimit="10" stroke-dasharray=""></path><path d="M 60.322 63.978 L 114.09 128.742" fill="transparent" stroke-width="5.282" stroke="rgb(27,34,122)" stroke-linecap="round" stroke-linejoin="round" stroke-dasharray=""></path></g><path d="M 525.507 339.209 C 525.507 339.209 522.464 340.055 520.942 340.562 C 519.928 340.9 515.193 340.393 512.488 340.9 C 511.135 341.238 509.783 341.745 508.937 342.76 C 508.092 343.775 508.092 345.635 509.106 346.48 C 509.444 346.649 509.952 346.818 509.952 347.326 C 509.952 347.495 509.952 347.664 509.783 347.833 C 509.614 348.34 509.783 349.186 510.29 349.524 C 510.797 349.862 511.473 350.031 511.981 349.693 C 511.981 351.046 513.164 352.06 514.348 352.23 C 514.348 351.553 514.517 350.708 515.024 350.369 C 515.531 350.031 516.377 350.031 517.053 350.031 C 518.237 349.862 519.42 349.355 520.266 348.509 C 520.942 347.833 521.28 347.157 521.787 346.48 C 522.971 345.127 524.493 344.282 526.184 343.775" fill="rgb(255,190,157)"></path><path d="M 580.121 273.599 C 579.952 273.43 579.952 273.261 579.783 273.092 L 565.918 286.62 C 562.705 295.413 556.111 318.41 556.111 318.41 C 556.111 318.41 549.855 321.285 545.797 323.483 C 544.783 323.99 541.739 326.019 538.188 328.556 C 538.188 329.57 538.019 330.416 538.019 330.923 C 537.85 333.798 537.343 333.798 538.188 336.503 C 538.188 338.364 537.512 341.069 537.005 343.775 C 547.319 341.069 568.792 334.474 569.469 333.967 C 570.652 333.291 576.908 307.926 580.628 292.538 C 581.135 283.069 580.797 275.29 580.121 273.599 Z" fill="rgb(90,181,226)" opacity="0.44999998807907104"></path><path d="M 565.918 285.098 C 564.565 288.818 557.802 320.947 557.802 320.947 C 557.802 320.947 551.208 322.637 546.981 324.836 C 543.768 326.527 521.28 340.562 521.28 340.562 L 523.478 345.804 C 523.478 345.804 563.551 331.6 565.242 330.585 C 566.932 329.57 582.995 288.987 582.995 281.885 C 582.995 277.658 579.614 273.261 579.614 273.261" fill="rgb(87,198,242)"></path><path d="M 497.101 331.261 C 495.749 331.431 494.396 330.416 494.227 329.232 C 494.227 328.894 494.227 328.725 494.058 328.556 C 493.889 328.218 493.213 328.049 492.874 327.88 C 491.184 327.372 490.169 325.681 489.662 323.99 C 489.493 323.145 489.324 322.13 489.662 321.285 C 490 320.439 490.676 319.594 491.522 319.256 L 492.029 319.256 C 492.198 319.256 492.367 319.425 492.367 319.594 C 492.874 320.27 493.213 321.116 493.551 321.961 C 493.72 322.638 493.889 323.314 494.396 323.652 C 494.734 323.821 495.242 323.99 495.58 324.159 C 496.425 324.498 496.763 325.343 496.932 326.189 C 497.44 327.203 496.763 330.078 497.101 331.261 M 501.836 322.976 C 502.005 321.961 501.667 320.777 500.99 320.101 C 500.314 319.425 499.469 318.917 498.454 318.579 C 498.285 318.41 497.947 318.41 497.778 318.579 C 497.609 318.748 497.778 318.917 497.778 319.086 C 498.116 319.763 498.961 319.932 499.3 320.608 C 499.469 320.777 499.469 321.116 499.638 321.285 C 499.976 322.13 500.821 322.807 501.836 322.976" fill="rgb(255,190,157)"></path><path d="M 535.821 301.669 C 535.821 301.669 532.101 292.2 531.256 288.311 C 529.396 297.611 530.072 313.675 528.551 315.028 C 527.029 316.381 511.812 325.174 511.812 325.174 C 519.082 322.976 527.874 319.594 530.242 316.719 C 531.594 315.028 533.792 308.772 535.821 301.669 Z" fill="rgb(90,181,226)" opacity="0.44999998807907104"></path><path d="M 544.952 259.564 C 544.952 259.564 551.377 260.917 552.56 260.748 C 553.744 260.579 550.024 262.777 549.348 262.777 C 548.671 262.777 544.952 262.27 544.952 262.27 Z" fill="rgb(242,161,129)"></path><path d="M 287.609 37.709 C 287.609 37.54 278.647 43.12 278.647 43.12 L 281.014 58.339 L 285.411 46.84 L 297.077 44.642 L 313.816 28.916 Z" fill="rgb(128,207,255)"></path><path d="M 313.816 29.085 L 281.014 58.339 L 285.411 47.009 Z" fill="rgb(164,225,255)"></path><path d="M 313.816 29.085 L 270.362 38.216 L 278.647 43.12 L 313.816 29.085 L 285.411 47.009 L 299.444 55.633 Z" fill="rgb(195,236,254)"></path><path d="M 154.71 230.649 C 154.879 230.818 155.556 230.818 155.725 230.818 C 156.063 230.818 155.894 230.987 157.246 232.34 C 158.261 233.354 159.783 233.523 162.488 232.34 C 164.517 231.325 164.01 229.803 164.179 228.958 C 164.179 228.112 164.348 227.943 164.686 227.943 C 165.024 227.774 165.193 227.943 165.7 228.45 C 166.208 229.127 167.222 230.649 169.42 230.141 C 171.111 229.803 171.787 228.958 171.787 227.774 C 171.957 225.745 171.957 225.745 172.126 225.576 C 172.295 225.407 172.126 224.561 171.957 224.223 C 171.787 223.885 170.435 224.054 169.251 224.561 C 167.899 224.899 165.87 225.576 165.362 226.083 C 164.686 226.59 164.855 226.928 164.348 227.098 C 164.01 227.267 163.841 226.928 162.995 226.759 C 162.15 226.59 158.599 227.774 157.415 228.112 C 156.063 228.45 154.372 229.296 154.372 229.634 C 154.372 229.972 154.541 230.31 154.71 230.649 Z M 166.039 227.098 C 166.039 226.59 166.546 226.421 168.068 225.914 C 169.589 225.407 170.266 225.068 170.604 225.238 C 170.942 225.407 171.28 226.083 171.111 227.267 C 170.942 228.619 170.773 229.296 169.42 229.634 C 168.068 229.972 167.222 229.465 166.715 228.789 C 166.377 227.943 166.039 227.267 166.039 227.098 Z M 156.739 229.465 C 156.908 229.127 158.937 228.619 160.459 228.281 C 161.981 227.943 162.488 227.774 162.826 228.281 C 162.995 228.45 163.164 229.127 163.164 229.972 C 163.164 230.818 163.164 231.663 160.797 232.34 C 159.106 232.847 158.261 232.509 157.415 231.494 C 156.739 230.48 156.57 229.803 156.739 229.465 Z" fill="rgb(23,13,84)"></path><path d="M 202.56 131.558 L 267.995 131.558 C 272.222 131.558 275.604 134.94 275.604 139.167 L 275.604 181.61 C 275.604 185.838 272.222 189.22 267.995 189.22 L 202.56 189.22 C 198.333 189.22 194.952 185.838 194.952 181.61 L 194.952 139.167 C 194.952 134.94 198.333 131.558 202.56 131.558 Z" fill="rgb(195,236,254)"></path><path d="M 266.643 170.619 L 285.918 165.208 L 268.671 160.642" fill="rgb(195,236,254)"></path><path d="M 235.724 160.118 L 223.719 160.118 L 223.719 157.413 L 235.724 157.413 Z" fill="rgb(9,100,175)" opacity="0.25"></path><path d="M 235.67 155.911 L 215.042 155.911 L 215.042 153.205 L 235.67 153.205 Z" fill="rgb(9,100,175)" opacity="0.25"></path><path d="M 264.783 172.242 L 205.773 172.242 L 205.773 168.86 L 264.783 168.86 Z" fill="rgb(9,100,175)" opacity="0.25"></path><path d="M 264.783 177.383 L 205.773 177.383 L 205.773 174.001 L 264.783 174.001 Z" fill="rgb(9,100,175)" opacity="0.25"></path><path d="M 235.67 151.876 L 215.042 151.876 L 215.042 149.171 L 235.67 149.171 Z" fill="rgb(9,100,175)" opacity="0.25"></path><path d="M 235.657 147.673 L 228.048 147.673 L 228.048 144.967 L 235.657 144.967 Z" fill="rgb(9,100,175)" opacity="0.25"></path><path d="M 240.604 153.54 C 240.604 146.816 246.054 141.365 252.778 141.365 C 259.501 141.365 264.952 146.816 264.952 153.54 C 264.952 160.264 259.501 165.715 252.778 165.715 C 246.054 165.715 240.604 160.264 240.604 153.54 Z" fill="rgb(9,100,175)" opacity="0.25"></path><path d="M 250.411 153.709 C 249.227 152.864 248.382 151.511 248.382 149.989 C 248.382 147.622 250.411 145.593 252.778 145.593 C 255.145 145.593 257.174 147.622 257.174 149.989 C 257.174 151.511 256.329 152.864 255.145 153.709 C 257.85 154.386 259.879 156.753 259.879 159.628 L 259.879 163.179 C 257.85 164.701 255.483 165.546 252.778 165.546 C 250.072 165.546 247.705 164.701 245.676 163.179 L 245.676 159.628 C 245.676 156.753 247.705 154.386 250.411 153.709 Z" fill="rgb(9,100,175)" opacity="0.19"></path><path d="M 191.579 117.615 C 187.242 115.886 185.128 110.968 186.856 106.631 C 188.585 102.293 193.503 100.179 197.84 101.908 C 202.177 103.637 204.292 108.555 202.563 112.892 C 200.834 117.23 195.916 119.344 191.579 117.615 Z" fill="rgb(254,125,144)"></path><path d="M 191.232 108.73 L 193.092 112.957 L 199.348 109.068" fill="transparent" stroke-width="1.056399941444397" stroke="rgb(255,255,255)" stroke-linecap="round" stroke-linejoin="round" stroke-dasharray=""></path><path d="M 513.014 50.824 C 511.175 46.532 513.163 41.561 517.455 39.722 C 521.746 37.882 526.716 39.871 528.555 44.162 C 530.395 48.454 528.407 53.425 524.115 55.264 C 519.824 57.104 514.854 55.116 513.014 50.824 Z" fill="rgb(254,125,144)"></path><path d="M 517.391 49.207 L 521.787 50.898 L 523.478 43.627" fill="transparent" stroke-width="1.056399941444397" stroke="rgb(255,255,255)" stroke-linecap="round" stroke-linejoin="round" stroke-dasharray=""></path><path d="M 584.855 338.364 C 584.855 324.075 596.437 312.492 610.725 312.492 C 625.012 312.492 636.594 324.075 636.594 338.364 C 636.594 352.652 625.012 364.235 610.725 364.235 C 596.437 364.235 584.855 352.652 584.855 338.364 Z" fill="rgb(255,255,255)" stroke-width="2.113" stroke="rgb(254,125,144)" stroke-linecap="round" stroke-linejoin="round" stroke-dasharray=""></path><path d="M 592.633 338.364 C 592.633 328.371 600.733 320.27 610.725 320.27 C 620.716 320.27 628.816 328.371 628.816 338.364 C 628.816 348.356 620.716 356.457 610.725 356.457 C 600.733 356.457 592.633 348.356 592.633 338.364 Z" fill="transparent" stroke-width="2.112799882888794" stroke="rgb(254,125,144)" stroke-linecap="round" stroke-linejoin="round" stroke-dasharray=""></path><path d="M 600.411 338.364 C 600.411 332.667 605.028 328.049 610.725 328.049 C 616.421 328.049 621.039 332.667 621.039 338.364 C 621.039 344.06 616.421 348.678 610.725 348.678 C 605.028 348.678 600.411 344.06 600.411 338.364 Z" fill="transparent" stroke-width="2.112799882888794" stroke="rgb(254,125,144)" stroke-linecap="round" stroke-linejoin="round" stroke-dasharray=""></path><path d="M 606.329 338.364 C 606.329 335.935 608.297 333.967 610.725 333.967 C 613.153 333.967 615.121 335.935 615.121 338.364 C 615.121 340.792 613.153 342.76 610.725 342.76 C 608.297 342.76 606.329 340.792 606.329 338.364 Z" fill="rgb(254,125,144)"></path><path d="M 610.725 338.364 L 644.034 304.882 M 649.444 305.559 L 643.527 305.559 L 643.527 299.471 M 646.401 308.433 L 640.483 308.433 L 640.483 302.515 M 643.357 311.477 L 637.44 311.477 L 637.44 305.559 M 616.473 338.533 L 610.386 338.533 L 610.386 332.614" fill="transparent" stroke-width="1.056" stroke="rgb(47,63,145)" stroke-miterlimit="10" stroke-dasharray=""></path><path d="M 62.899 253.646 C 62.899 251.965 64.261 250.602 65.942 250.602 C 67.623 250.602 68.986 251.965 68.986 253.646 C 68.986 255.327 67.623 256.69 65.942 256.69 C 64.261 256.69 62.899 255.327 62.899 253.646 Z" fill="rgb(254,125,144)"></path><path d="M 646.401 185.669 C 646.401 183.988 647.764 182.625 649.444 182.625 C 651.125 182.625 652.488 183.988 652.488 185.669 C 652.488 187.35 651.125 188.712 649.444 188.712 C 647.764 188.712 646.401 187.35 646.401 185.669 Z" fill="rgb(254,125,144)"></path><path d="M 355.749 69.499 C 355.749 67.818 357.111 66.455 358.792 66.455 C 360.473 66.455 361.836 67.818 361.836 69.499 C 361.836 71.18 360.473 72.543 358.792 72.543 C 357.111 72.543 355.749 71.18 355.749 69.499 Z" fill="rgb(254,125,144)"></path><path d="M 258.865 129.19 C 258.357 129.19 257.85 128.683 257.85 128.176 L 257.85 121.243 C 257.85 120.735 258.357 120.228 258.865 120.228 C 259.372 120.228 259.879 120.735 259.879 121.243 L 259.879 128.176 C 259.879 128.683 259.541 129.19 258.865 129.19 Z" fill="rgb(254,125,144)"></path><path d="M 262.415 125.639 L 255.483 125.639 C 254.976 125.639 254.469 125.132 254.469 124.625 C 254.469 124.117 254.976 123.61 255.483 123.61 L 262.415 123.61 C 262.923 123.61 263.43 124.117 263.43 124.625 C 263.43 125.301 262.923 125.639 262.415 125.639 Z M 88.599 394.166 C 88.092 394.166 87.585 393.658 87.585 393.151 L 87.585 386.218 C 87.585 385.711 88.092 385.203 88.599 385.203 C 89.106 385.203 89.614 385.711 89.614 386.218 L 89.614 393.151 C 89.614 393.658 89.106 394.166 88.599 394.166 Z" fill="rgb(254,125,144)"></path><path d="M 91.981 390.615 L 85.048 390.615 C 84.541 390.615 84.034 390.107 84.034 389.6 C 84.034 389.093 84.541 388.585 85.048 388.585 L 91.981 388.585 C 92.488 388.585 92.995 389.093 92.995 389.6 C 92.995 390.276 92.657 390.615 91.981 390.615 Z M 678.357 290.171 C 677.85 290.171 677.343 289.664 677.343 289.156 L 677.343 282.223 C 677.343 281.716 677.85 281.209 678.357 281.209 C 678.865 281.209 679.372 281.716 679.372 282.223 L 679.372 289.156 C 679.372 289.664 678.865 290.171 678.357 290.171 Z" fill="rgb(254,125,144)"></path><path d="M 681.908 286.62 L 674.976 286.62 C 674.469 286.62 673.961 286.113 673.961 285.605 C 673.961 285.098 674.469 284.591 674.976 284.591 L 681.908 284.591 C 682.415 284.591 682.923 285.098 682.923 285.605 C 682.754 286.113 682.415 286.62 681.908 286.62 Z" fill="rgb(254,125,144)"></path><path d="M 448.277 10.546 L 491.106 24.821 L 481.804 52.735 L 438.975 38.46 Z" fill="rgb(155,223,255)"></path><path d="M 491.184 24.688 L 448.237 10.484 L 475.459 0 Z" fill="rgb(155,223,255)"></path><path d="M 453.127 9.791 L 487.454 21.233 L 477.778 50.269 L 443.45 38.828 Z" fill="rgb(255,255,255)"></path><path d="M 448.237 10.484 L 438.937 38.385 L 464.638 32.467 Z M 491.184 24.688 L 481.884 52.589 L 464.638 32.467 Z" fill="rgb(194,235,255)"></path><path d="M 481.884 52.589 L 438.937 38.385 L 466.329 27.901 Z" fill="rgb(194,235,255)"></path><path d="M 438.937 38.385 L 445.531 35.341 C 447.729 34.327 449.928 33.481 452.295 32.467 C 456.86 30.607 461.256 28.747 465.821 27.056 L 466.498 26.717 L 466.836 27.394 C 469.372 31.452 471.908 35.68 474.444 39.907 C 475.628 41.936 476.981 44.134 478.164 46.164 C 479.348 48.362 480.531 50.391 481.715 52.589 C 480.193 50.56 478.841 48.531 477.488 46.671 L 473.43 40.583 C 470.725 36.525 468.019 32.467 465.483 28.239 L 466.498 28.577 L 452.802 33.65 C 450.435 34.496 448.237 35.172 445.87 36.018 C 443.671 36.863 441.304 37.709 438.937 38.385 Z" fill="rgb(155,223,255)"></path></svg>